<?xml version="1.0" encoding="UTF-8"?>
<svg id="Layer_2" data-name="Layer 2" xmlns="http://www.w3.org/2000/svg" xmlns:xlink="http://www.w3.org/1999/xlink" viewBox="0 0 194.38 96.28">
  <defs>
    <style>
      .cls-1 {
        fill: #f1b401;
        filter: url(#drop-shadow-1);
      }

      .cls-1, .cls-2, .cls-3 {
        stroke-width: 0px;
      }

      .cls-2 {
        fill: #2b4f18;
      }

      .cls-3 {
        fill: #426f2a;
      }
    </style>
    <filter id="drop-shadow-1" filterUnits="userSpaceOnUse">
      <feOffset dx="0" dy="0"/>
      <feGaussianBlur result="blur" stdDeviation="2.16"/>
      <feFlood flood-color="#ccc" flood-opacity=".75"/>
      <feComposite in2="blur" operator="in"/>
      <feComposite in="SourceGraphic"/>
    </filter>
  </defs>
  <g id="Layer_1-2" data-name="Layer 1">
    <path class="cls-2" d="m49.82,11.96c.53-1.3,2.39-.25,6.25-.26.12,4.7.4,9.48.32,14.07-.07,4.59.1,7.71.16,12.3.05,3.67.12,8.68.22,12.42.1,4.18.14,8.4.13,12.58-.01,3.13.12,6.07.16,9.13.1,4.19-.05,8.22.14,12.29-.03,1.64.29,4.34-1.46,4.42s-6.72.36-7.26-.59c-1.82-1.71.81-67.75,1.09-68.28"/>
    <path class="cls-3" d="m29.74,11.8c-4.03-.3-8.07-.42-12.08-.97-4.98-.69-7.37-1.02-12.31-2.09-.88-.19-2.02-.45-3.98-1.29s-1.46-1.44-.61-1.86c.71-.35,2.76-.85,4.08-.99,0,0,1.6-.14,1.77-.14s8.78-.45,13.2-.53c4.41-.07,8.82-.14,13.24-.2,4.51-.06,9.03-.07,13.54-.18,3.36-.09,6.73-.32,10.09-.46,5.17-.22,10.34-.43,15.5-.65,3.4-.14,6.8-.29,10.2-.45,4.76-.22,9.53-.47,14.29-.68,3.6-.16,7.23-.33,10.83-.54,4.09-.24,8.15-.58,12.25-.7.98-.03,2.12-.26,2.98.48.97.83.46,3.28.28,4.51-.11.78-.19,1.57-.37,2.34-.51,2.15-1.97,2.68-3.48,2.74-7.71.26-15.43.59-23.14.87-2.74.1-5.48.14-8.22.23-5.35.18-10.69.4-16.04.56-5.88.17-11.76.41-17.65.43"/>
    <path class="cls-1" d="m74.41,88.95c-.61,0-8.57-.01-9.52-.04-.6-1.24-.72-1.51-1.55-3.68-1.02-3.11-1.75-5.67-2.25-8.87-.23-1.47-.18-2.24.62-3.53.97-1.16,1.64-1.34,2.79-1.51,1.27-.18,2.4.26,3.54.89,1.99,1.1,4.77-.85,4.72-3.04-.02-1.11-.78-2.31-1.49-3.29-2.03-2.78-3.87-5.66-5.28-8.77-.8-1.75-1.51-3.55-1.3-5.53.04-.37.02-.8.21-1.1.52-.83.2-1.49-.25-2.22-.93-1.49-1.56-3.09-1.62-4.85-.09-2.33.87-4.06,3.14-5.05.17-.08.34-.18.5-.27-1.69-2.46-3.31-4.85-4.97-7.21-.16-.23-.57-.37-.89-.43-1.68-.31-3.44-.52-4.7-1.71-.78-.74-1.39-1.73-1.79-2.72-.4-1,.19-1.71,1.28-2.03,1.82-.54,3.28.28,4.72,1.17.38.24.72.52,1.01.84,1.21,1.38,2.8,1.17,4.41.9.22-.04.44-.04.46-.04-.54-.97-1.3-1.92-1.58-2.98-.24-.91.27-1.42.95-1.85.52-.32.5-1.02-.03-1.32-.38-.22-.75-.43-1.12-.63-1.06-.59-1.73-1.5-2-2.58-.46-1.85-.1-3.71-1.07-5.34-.09-.15.08-.06.46-.11.63,1.52.95,1.91,1.27,3.24.58,2.43,2.39,3.56,4.59,4.29,1.44.48,2.96.77,4.44,1.13.57.14,1.17.32.94,1.01-.18.54-.12,1.31-1.23,1.23-1.22-.09-2.42.06-3.54.51-.6.24-.67.99-.15,1.35.85.59,2.09,1.02,2.9.9.32-.05.65-.09.98-.08,1.07.04,1.38.51,1.08,1.47-.32,1.03-.87,1.75-2.05,2.03-1.57.37-3.13.8-4.76,1.24-.56.15-.81.74-.49,1.18.33.47.68.96,1.05,1.42,1.08,1.34,2.15,2.69,3.36,3.92.43.43,1.24.61,1.91.71,3.58.54,6.75,1.98,9.7,3.9,1.49.96,1.76,2.22.92,3.75-.36.65-.89,1.01-1.73,1-2.51-.04-4.66-1.12-6.77-2.19-1.34-.68-2.63-1.46-3.75-2.43-.93-.81-1.6-.65-2.45-.25-1.44.68-1.75,1.22-1.35,2.67.16.57.42,1.11.62,1.68.4,1.14,1.09,1.64,2.47,1.59,1.68-.06,3.06.84,4.16,2.03.22.24.32.72.25,1.06-.5,2.61-1.38,3.78-4.06,2.65-.01,0-.02-.01-.04-.02-.7-.3-1.45.29-1.22.96.65,1.9,1.56,3.63,2.55,5.32,1.35,2.29,2.92,4.46,4.21,6.77,1.87,3.35.33,8.3-3.15,10.23-1.95,1.08-3.86.55-5.67-.51,0,0,0,0,0,0-.61-.35-.9.44-.36,1.06"/>
    <g>
      <path class="cls-2" d="m103.65,25.75v18.39s-7.76,0-7.76,0v-18.39s-7.91,0-7.91,0v-6.32s23.57.02,23.57.02v6.32s-7.9,0-7.9,0Z"/>
      <path class="cls-2" d="m123.18,49.63c-1.39,1.38-3.34,2.06-5.84,2.06-1.52,0-2.86-.22-4.03-.65v-4.27s2.81,0,2.81,0c1.75,0,2.79-.87,3.12-2.62l-7.35-18.97h7.5s3.53,12.61,3.53,12.61h.25l3.27-12.6h6.87s-6.61,18.39-6.61,18.39c-.96,2.66-2.14,4.67-3.53,6.05Z"/>
      <path class="cls-2" d="m135.66,44.16l.02-26.04h6.98s-.02,26.04-.02,26.04h-6.98Z"/>
      <path class="cls-2" d="m164.44,27.23c1.79,1.63,2.68,4.12,2.68,7.47v1.22s-13.89,0-13.89,0c0,1.36.3,2.39.89,3.09.6.7,1.54,1.04,2.82,1.04,1.17,0,2.03-.25,2.58-.75.55-.5.82-1.17.83-2.01h6.77c0,2.3-.86,4.1-2.56,5.39-1.71,1.29-4.2,1.94-7.47,1.93-3.44,0-6.1-.82-7.99-2.47-1.89-1.64-2.84-4.13-2.84-7.45,0-3.26.93-5.72,2.78-7.4,1.85-1.67,4.4-2.51,7.65-2.51,3.39,0,5.98.82,7.77,2.45Zm-11.17,5.31h6.8c0-.98-.27-1.75-.82-2.33s-1.31-.86-2.3-.86c-2.2,0-3.43,1.06-3.68,3.19Z"/>
      <path class="cls-2" d="m183.19,24.96c.42.13.63.21.63.23v6s-2.25,0-2.25,0c-1.45,0-2.5.38-3.14,1.15-.64.77-.97,1.9-.97,3.41v8.44s-6.99,0-6.99,0v-18.96s5.73,0,5.73,0l.45,2.87c.42-1.1,1.09-1.93,2-2.49.91-.56,1.94-.84,3.09-.84.54,0,1.02.07,1.44.2Z"/>
      <path class="cls-2" d="m107.85,87.24l-3.11-15.05h-.14l-3.13,15.04h-8.52s-5.63-24.72-5.63-24.72h8.07s2.76,14.01,2.76,14.01h.14l2.75-14h7.64s2.9,14.01,2.9,14.01h.14l2.61-14h7.72s-5.66,24.71-5.66,24.71h-8.52Z"/>
      <path class="cls-2" d="m139.78,69.32c1.78.97,2.66,2.55,2.66,4.72v7.4c0,.41.09.74.27,1.01.19.26.47.4.84.4h1.26s0,4.13,0,4.13c-.07.05-.25.12-.54.23-.29.11-.71.21-1.25.32s-1.16.16-1.86.16c-1.36,0-2.47-.21-3.35-.63-.88-.42-1.48-1-1.8-1.74-.89.72-1.88,1.29-2.98,1.72-1.1.43-2.38.64-3.86.64-4.35,0-6.52-1.78-6.52-5.32,0-1.84.49-3.25,1.46-4.22.97-.97,2.37-1.63,4.19-1.99,1.82-.36,4.21-.54,7.16-.53v-.93c0-.74-.25-1.3-.75-1.69-.5-.38-1.15-.58-1.95-.58-.72,0-1.35.13-1.88.39-.53.26-.79.68-.79,1.26v.14h-6.87c-.02-.12-.04-.29-.04-.51,0-1.8.84-3.22,2.51-4.27,1.67-1.05,4.06-1.58,7.17-1.58,2.83,0,5.13.49,6.91,1.46Zm-8.72,10.34c-.95.44-1.42,1.04-1.42,1.78,0,1.2.79,1.8,2.38,1.8.91,0,1.71-.25,2.4-.75.69-.5,1.04-1.12,1.04-1.87v-1.62c-1.99,0-3.45.22-4.4.66Z"/>
      <path class="cls-2" d="m147.34,87.27v-18.96s6.99,0,6.99,0v18.96s-6.99,0-6.99,0Zm.01-21.19v-4.85s6.98,0,6.98,0v4.85s-6.98,0-6.98,0Z"/>
      <path class="cls-2" d="m171.13,68.32v4.85s-3.93,0-3.93,0v7.22c0,.86.13,1.49.42,1.89.28.39.79.59,1.54.59h1.96s0,4.2,0,4.2c-.56.19-1.29.35-2.17.47-.89.12-1.66.18-2.32.18-2.06,0-3.64-.38-4.75-1.15-1.11-.77-1.67-2.07-1.66-3.92v-9.48s-2.59,0-2.59,0v-4.85s2.88,0,2.88,0l1.51-5.75h5.19s0,5.75,0,5.75h3.93Z"/>
      <path class="cls-2" d="m191.7,70.35c1.79,1.63,2.68,4.12,2.68,7.47v1.22s-13.89,0-13.89,0c0,1.36.3,2.39.89,3.09.6.7,1.54,1.04,2.82,1.04,1.17,0,2.03-.25,2.58-.75.55-.5.83-1.17.83-2.01h6.77c0,2.3-.86,4.1-2.56,5.39-1.71,1.29-4.2,1.94-7.47,1.93-3.44,0-6.1-.82-7.99-2.47-1.89-1.64-2.84-4.13-2.84-7.45,0-3.25.93-5.72,2.78-7.4s4.4-2.51,7.65-2.51c3.39,0,5.98.82,7.77,2.45Zm-11.17,5.31h6.8c0-.98-.27-1.75-.82-2.33s-1.31-.86-2.3-.86c-2.2,0-3.43,1.06-3.68,3.19Z"/>
    </g>
  </g>
</svg>