<?xml version="1.0" encoding="UTF-8"?>
<svg id="Layer_2" data-name="Layer 2" xmlns="http://www.w3.org/2000/svg" viewBox="0 0 264.18 89.6">
  <defs>
    <style>
      .cls-1 {
        fill: #0f0b0a;
      }

      .cls-1, .cls-2 {
        stroke-width: 0px;
      }

      .cls-2 {
        fill: #f0b416;
      }
    </style>
  </defs>
  <g id="Layer_1-2" data-name="Layer 1">
    <ellipse id="Ellipse_1" data-name="Ellipse 1" class="cls-2" cx="186.38" cy="62.01" rx="77.8" ry="27.59"/>
    <path class="cls-1" d="m16.11,1.09c1.22.72,2.18,1.71,2.87,2.95.69,1.24,1.07,2.67,1.13,4.28.02.55-.15.84-.52.86l-4.88.35c-.31.02-.48-.32-.52-1.03-.06-.92-.24-1.68-.56-2.28s-.93-.9-1.83-.9c-.81,0-1.5.25-2.06.76-.57.51-1.04,1.17-1.41,2-.38.83-.67,1.74-.88,2.72-.21.99-.36,1.97-.45,2.95-.09.98-.13,1.87-.13,2.67,0,1.56.22,2.65.66,3.28.44.62,1.1.93,1.96.93,1.02,0,1.95-.31,2.8-.93.85-.62,1.57-1.64,2.17-3.07.15-.39.45-.52.89-.38l3.9,1.1c.23.07.22.52-.03,1.34-.1.32-.3.79-.61,1.4-.31.61-.73,1.27-1.27,1.98-.54.71-1.2,1.39-1.99,2.02-.79.63-1.7,1.15-2.74,1.57-1.04.41-2.21.62-3.52.62-1.87,0-3.47-.48-4.81-1.45-1.34-.97-2.36-2.29-3.06-3.98-.7-1.69-1.05-3.64-1.05-5.84,0-1.61.16-3.15.48-4.64.32-1.48.79-2.85,1.43-4.1.63-1.25,1.42-2.35,2.35-3.29.93-.94,2.02-1.67,3.25-2.19,1.23-.52,2.6-.78,4.1-.78,1.67,0,3.12.36,4.34,1.09Z"/>
    <path class="cls-1" d="m20.32,25.62c-.12-.21-.16-.46-.14-.76l1.96-16.62c.04-.25.09-.41.14-.48.06-.07.17-.1.35-.1h4.59c.15,0,.28.07.38.21s.13.37.09.69l-.17,1.24c-.02.28,0,.43.09.45s.18-.05.32-.21c.38-.51.84-.97,1.36-1.38.52-.41,1.05-.74,1.59-.98s1.01-.36,1.41-.36.69.04.92.1.33.23.29.48l-.58,5.03c-.04.35-.09.56-.16.64-.07.08-.17.11-.3.09-.5-.09-.98-.16-1.43-.19-.45-.04-.78-.05-1-.05-.35,0-.69.07-1.04.22-.35.15-.66.35-.95.6-.29.25-.53.53-.71.83s-.29.6-.33.9l-1.07,9.17c-.04.37-.12.59-.24.67-.13.08-.35.12-.68.12h-4.07c-.29,0-.49-.1-.61-.31Z"/>
    <path class="cls-1" d="m36.25,25.24c-1.1-.69-1.96-1.64-2.58-2.86-.63-1.22-.94-2.63-.94-4.24,0-1.43.23-2.78.69-4.07.46-1.29,1.1-2.44,1.92-3.47.82-1.02,1.77-1.83,2.86-2.41,1.09-.59,2.27-.88,3.54-.88,1.39,0,2.6.33,3.65,1,1.05.67,1.87,1.62,2.45,2.86.59,1.24.88,2.74.88,4.48,0,.3,0,.61-.03.93-.02.32-.05.64-.09.97-.02.21-.08.34-.17.4s-.27.09-.52.09h-8.92c-.23,0-.38.17-.43.52-.06.34-.09.66-.09.93,0,.78.23,1.35.69,1.71.46.36,1.05.53,1.76.53.56,0,1.1-.14,1.62-.41.52-.28,1.08-.76,1.67-1.45.12-.14.24-.2.36-.19.12.01.27.06.45.16l2.45,1.28c.5.25.58.62.23,1.1-.85,1.1-1.66,1.95-2.42,2.53-.77.59-1.57.99-2.41,1.21-.84.22-1.78.33-2.81.33-1.44,0-2.71-.35-3.81-1.04Zm6.49-10.58c.19,0,.36-.1.51-.29.14-.2.22-.5.22-.91,0-.46-.12-.92-.36-1.4-.24-.47-.67-.71-1.28-.71-.39,0-.78.13-1.17.38-.39.25-.73.63-1.01,1.12-.28.5-.46,1.1-.53,1.81h3.64Z"/>
    <path class="cls-1" d="m55.65,25.88c-.77.26-1.58.4-2.42.4-1.35,0-2.4-.44-3.15-1.31s-1.13-1.97-1.13-3.28.3-2.49.91-3.41c.61-.92,1.39-1.66,2.35-2.22.96-.56,2-.97,3.12-1.21s2.17-.36,3.18-.36h.2c.37,0,.58-.23.64-.69l.09-.59c.02-.09.03-.18.03-.26v-.22c0-.46-.11-.79-.32-1-.21-.21-.54-.31-.98-.31s-.94.1-1.43.29c-.49.2-.89.66-1.2,1.4-.06.14-.14.23-.23.27-.1.05-.27.05-.52,0l-3.67-.9c-.15-.04-.27-.17-.36-.36-.09-.2-.04-.56.13-1.09.62-1.36,1.57-2.31,2.87-2.88,1.3-.56,2.86-.84,4.69-.84,1.64,0,2.93.21,3.88.62s1.63.99,2.03,1.72c.4.74.61,1.59.61,2.55,0,.16,0,.32-.01.48,0,.16-.02.33-.04.52l-1.41,12c-.04.35-.09.55-.14.62-.06.07-.22.1-.49.1h-3.95c-.25,0-.4-.1-.46-.31-.06-.21-.11-.47-.14-.79l-.03-.41c-.04-.51-.29-.46-.75.14-.48.62-1.11,1.06-1.88,1.33Zm3.2-7.88c.04-.21.05-.33.03-.38-.02-.04-.12-.06-.29-.03l-.4.03c-.29.02-.63.09-1.04.21s-.8.29-1.18.52c-.39.23-.7.53-.95.9-.25.37-.38.82-.38,1.35,0,.37.11.68.32.95.21.26.53.4.95.4s.83-.07,1.16-.21c.33-.14.59-.3.78-.48.19-.18.37-.4.53-.66.16-.25.25-.51.27-.76l.2-1.83Z"/>
    <path class="cls-1" d="m68.42,24.81c-.84-.75-1.26-1.75-1.26-3.02v-.33c0-.1,0-.21.03-.33l1.01-8.34c.02-.18-.03-.31-.14-.38-.12-.07-.26-.1-.43-.1h-1.44c-.31,0-.42-.32-.35-.97l.38-3.24c.04-.23.1-.36.17-.4.08-.04.21-.05.4-.05h1.7c.12,0,.23-.06.33-.19s.17-.27.19-.43l1.1-5.1c.08-.32.29-.48.63-.48h4.24c.15,0,.26.06.33.19.07.13.08.39.04.78l-.61,4.76c-.02.12,0,.22.09.31.08.09.16.14.26.14h2.54c.19,0,.36.04.49.12.13.08.18.24.14.47l-.4,3.55c-.02.23-.08.38-.17.45-.1.07-.27.1-.52.1h-2.68c-.31,0-.49.22-.55.66l-.78,6.62c-.02.07-.03.14-.03.21v.21c0,.44.13.75.4.93.27.19.71.28,1.33.28h1.24c.15,0,.29.1.4.31.12.21.15.4.12.59l-.35,2.76c-.06.58-.3.87-.72.9-.4.05-.83.08-1.28.1s-.9.04-1.34.05-.87.02-1.27.02c-1.33,0-2.41-.37-3.25-1.12Z"/>
    <path class="cls-1" d="m83.73,25.14c-.04.37-.12.59-.24.67-.13.08-.35.12-.68.12h-4.07c-.29,0-.49-.1-.61-.31-.12-.21-.16-.46-.14-.76l1.96-16.62c.04-.25.09-.41.16-.48.07-.07.19-.1.36-.1h4.88c.15,0,.25.1.3.29.05.2.06.4.04.6l-1.96,16.58Zm2.34-19.79c-.04.35-.13.56-.26.66-.13.09-.37.14-.69.14h-4.36c-.21,0-.35-.11-.4-.33-.06-.22-.07-.48-.03-.78l.49-3.9c.06-.53.25-.79.58-.79h4.85c.15,0,.25.1.29.29.04.2.04.41,0,.64l-.46,4.07Z"/>
    <path class="cls-1" d="m85.91,25.62c-.05-.21-.06-.46-.04-.76l1.96-16.62c.04-.25.09-.41.14-.48.06-.07.17-.1.35-.1h4.94c.12,0,.2.03.26.09.06.06.07.2.03.43l-.2,1.55c-.02.3.1.31.35.04.67-.71,1.42-1.3,2.24-1.76.82-.46,1.64-.69,2.47-.69,1.25,0,2.25.44,3,1.33.75.89,1.13,2.04,1.13,3.47,0,.16,0,.32-.01.48,0,.16-.02.33-.04.52l-1.41,12c-.04.35-.12.57-.25.67-.13.1-.34.16-.65.16h-4.42c-.25,0-.39-.1-.43-.29-.04-.2-.04-.45,0-.78l1.3-11.03c.02-.12.03-.22.04-.31,0-.09.01-.16.01-.21,0-.39-.1-.68-.3-.86s-.49-.28-.85-.28c-.33,0-.64.08-.95.22-.31.15-.59.37-.85.66s-.51.63-.74,1.02l-1.36,11.07c-.04.37-.13.59-.26.67-.14.08-.38.12-.72.12h-4.27c-.25,0-.4-.1-.45-.31Z"/>
    <path class="cls-1" d="m103.52,30.93c-1.43-.67-2.15-1.63-2.15-2.9,0-.87.31-1.56.94-2.05.62-.49,1.32-.87,2.09-1.12.23-.09.36-.2.39-.33s-.06-.24-.27-.33c-.48-.21-.85-.5-1.11-.88-.26-.38-.39-.9-.39-1.57s.18-1.24.53-1.72c.36-.48.8-.9,1.33-1.24s1.03-.61,1.52-.79c.25-.12.4-.22.45-.33.05-.1-.03-.2-.25-.29-.71-.3-1.28-.79-1.7-1.46-.42-.68-.63-1.49-.63-2.43,0-1.1.22-2.04.65-2.81.43-.77,1.01-1.4,1.75-1.9.73-.49,1.54-.85,2.44-1.07.89-.22,1.8-.33,2.73-.33,1.48,0,2.64.18,3.46.55.83.37,1.44.78,1.85,1.24.15.16.33.14.53-.05.2-.2.38-.41.53-.64.31-.44.68-.79,1.11-1.07.43-.28.86-.49,1.27-.64.41-.15.74-.22.97-.22.21,0,.38.04.52.12.13.08.18.28.14.6l-.35,3.1c-.04.39-.11.64-.2.74-.1.1-.23.14-.4.12-.25-.02-.54-.04-.87-.05-.33-.01-.55-.02-.66-.02-.69,0-.93.29-.72.86.04.09.06.22.07.38,0,.16.01.33.01.52,0,1.08-.25,1.99-.75,2.72-.5.74-1.15,1.33-1.95,1.78-.8.45-1.65.78-2.55.98-.9.21-1.76.31-2.57.31-.14,0-.36.01-.68.03-.32.02-.66.08-1.02.16-.37.08-.68.2-.94.36s-.39.38-.39.66c0,.16.09.26.26.31s.44.09.81.14l4.36.31c1.98.14,3.43.65,4.33,1.53.9.89,1.36,2.04,1.36,3.47,0,1.03-.21,1.92-.63,2.65-.42.74-.99,1.33-1.69,1.79-.7.46-1.49.82-2.37,1.09-.88.27-1.78.45-2.71.55-.93.1-1.82.15-2.67.15-2.41,0-4.33-.33-5.76-1Zm8.2-2.21c.59-.12,1.06-.27,1.43-.45s.64-.4.82-.66c.18-.25.27-.52.27-.79,0-.32-.13-.56-.38-.71s-.68-.24-1.3-.26l-4.16-.24c-.23,0-.53.06-.89.17-.37.12-.69.29-.98.53-.29.24-.43.57-.43.98,0,.48.26.87.79,1.15.53.29,1.44.43,2.73.43.81,0,1.51-.06,2.09-.17Zm.97-13.53c.38-.27.69-.63.92-1.1.23-.47.35-1,.35-1.6,0-.55-.18-1-.53-1.36s-.88-.53-1.57-.53c-.46,0-.89.15-1.27.45-.39.3-.69.69-.92,1.17s-.35,1.01-.35,1.59c0,.48.19.9.58,1.26.38.36.89.53,1.5.53.48,0,.91-.13,1.3-.4Z"/>
    <path class="cls-1" d="m160.24.67c.03.22-.06.63-.27,1.22l-8.63,23.34c-.14.3-.27.49-.4.57-.13.08-.35.12-.63.12h-3.98c-.29,0-.51-.05-.66-.14-.15-.09-.25-.29-.29-.59l-1.65-12.38c-.02-.21-.06-.3-.13-.29-.07.01-.14.11-.22.29l-4.53,12.41c-.12.3-.24.49-.38.57-.14.08-.36.12-.66.12h-4.19c-.54,0-.85-.28-.92-.83l-3.17-23.55c-.06-.39-.03-.69.09-.9.12-.21.36-.31.72-.31h4.82c.31,0,.52.09.65.26s.2.38.22.64l1.56,12.65c.04.23.09.35.14.36s.13-.1.2-.33l4.62-13.03c.08-.23.17-.38.29-.45.12-.07.33-.1.63-.1h4.16c.31,0,.5.08.58.24.08.16.13.38.14.66l1.64,12.93c.02.14.07.21.14.21s.14-.09.2-.28l4.53-13.2c.08-.23.17-.38.27-.45s.31-.1.62-.1h3.87c.38,0,.59.11.62.33Z"/>
    <path class="cls-1" d="m160.4,25.24c-1.1-.69-1.96-1.64-2.58-2.86-.63-1.22-.94-2.63-.94-4.24,0-1.43.23-2.78.69-4.07.46-1.29,1.1-2.44,1.92-3.47.82-1.02,1.77-1.83,2.86-2.41,1.09-.59,2.27-.88,3.54-.88,1.39,0,2.6.33,3.65,1,1.05.67,1.87,1.62,2.45,2.86.59,1.24.88,2.74.88,4.48,0,.3,0,.61-.03.93-.02.32-.05.64-.09.97-.02.21-.08.34-.17.4s-.27.09-.52.09h-8.92c-.23,0-.38.17-.43.52-.06.34-.09.66-.09.93,0,.78.23,1.35.69,1.71.46.36,1.05.53,1.76.53.56,0,1.1-.14,1.62-.41.52-.28,1.08-.76,1.67-1.45.12-.14.24-.2.36-.19.12.01.27.06.45.16l2.45,1.28c.5.25.58.62.23,1.1-.85,1.1-1.66,1.95-2.42,2.53-.77.59-1.57.99-2.41,1.21-.84.22-1.78.33-2.81.33-1.44,0-2.71-.35-3.81-1.04Zm6.49-10.58c.19,0,.36-.1.51-.29.14-.2.22-.5.22-.91,0-.46-.12-.92-.36-1.4-.24-.47-.67-.71-1.28-.71-.39,0-.78.13-1.17.38-.39.25-.73.63-1.01,1.12-.28.5-.46,1.1-.53,1.81h3.64Z"/>
    <path class="cls-1" d="m174.14,25.93c-.31,0-.52-.1-.63-.31-.12-.21-.16-.46-.14-.76l2.83-23.93c.04-.25.09-.41.16-.48s.18-.1.33-.1h4.94c.17,0,.27.1.3.29.03.2.02.41-.01.64l-.87,7.41c-.02.18,0,.29.07.33.07.04.19-.03.36-.19.46-.41.9-.73,1.31-.95.41-.22.82-.37,1.23-.45.4-.08.8-.12,1.18-.12,1.12,0,2.05.3,2.81.9.76.6,1.34,1.44,1.75,2.53.4,1.09.61,2.41.61,3.95,0,1.33-.14,2.68-.42,4.05s-.72,2.62-1.33,3.76-1.39,2.05-2.35,2.74c-.96.69-2.12,1.04-3.46,1.04-.56,0-1.09-.12-1.6-.35-.51-.23-.98-.56-1.41-.98-.43-.43-.81-.95-1.14-1.57-.06-.11-.14-.17-.26-.17s-.22.16-.32.48l-.46,1.52c-.08.3-.17.49-.29.59-.12.09-.27.14-.46.14h-2.71Zm5.6-6.17c-.06.58-.03,1.05.07,1.41.11.37.28.64.53.81.25.17.56.26.92.26.69,0,1.26-.29,1.7-.88.44-.59.78-1.32,1.01-2.19.23-.87.39-1.76.49-2.67.1-.91.14-1.68.14-2.33,0-1.01-.13-1.71-.39-2.09-.26-.38-.64-.57-1.14-.57s-.96.14-1.37.43c-.41.29-.79.65-1.14,1.09l-.84,6.72Z"/>
    <path class="cls-1" d="m193.05,25.05c-1.15-.82-1.95-1.75-2.4-2.81-.17-.44-.09-.76.26-.97l2.37-1.34c.25-.14.46-.2.63-.17s.34.18.49.48c.25.44.6.86,1.04,1.26.44.4,1.18.6,2.22.6.17,0,.4-.01.69-.04.29-.02.57-.07.85-.15.28-.08.52-.22.72-.41s.3-.47.3-.81c0-.23-.09-.42-.27-.57-.18-.15-.53-.29-1.02-.43l-2.86-.79c-1.29-.37-2.29-.92-3-1.65-.71-.74-1.07-1.77-1.07-3.1,0-1.52.35-2.78,1.04-3.79.69-1.01,1.61-1.77,2.74-2.28,1.14-.51,2.37-.76,3.7-.76,1.63,0,2.95.37,3.94,1.12.99.75,1.73,1.58,2.21,2.5.08.14.12.29.12.47s-.1.32-.29.43l-2.42,1.28c-.19.09-.35.11-.46.05-.12-.06-.3-.25-.55-.57-.23-.32-.56-.61-1-.88-.43-.26-.98-.4-1.63-.4-.37,0-.72.04-1.05.12-.34.08-.61.21-.82.38-.21.17-.32.41-.32.71,0,.25.06.44.17.57.12.13.37.25.75.36l2.97.76c1.54.39,2.64,1.06,3.29,2.02s.98,2.04.98,3.26-.22,2.19-.65,3.05c-.43.86-1.01,1.57-1.72,2.12-.71.55-1.52.96-2.41,1.22s-1.8.4-2.73.4c-2.06,0-3.67-.41-4.82-1.22Z"/>
    <path class="cls-1" d="m211.98,25.14c-.04.37-.12.59-.24.67-.13.08-.35.12-.68.12h-4.07c-.29,0-.49-.1-.61-.31-.12-.21-.16-.46-.14-.76l1.96-16.62c.04-.25.09-.41.16-.48.07-.07.19-.1.36-.1h4.88c.15,0,.25.1.3.29.05.2.06.4.04.6l-1.96,16.58Zm2.34-19.79c-.04.35-.13.56-.26.66-.13.09-.37.14-.69.14h-4.36c-.21,0-.35-.11-.4-.33-.06-.22-.07-.48-.03-.78l.49-3.9c.06-.53.25-.79.58-.79h4.85c.15,0,.25.1.29.29.04.2.04.41,0,.64l-.46,4.07Z"/>
    <path class="cls-1" d="m217.63,24.81c-.84-.75-1.26-1.75-1.26-3.02v-.33c0-.1,0-.21.03-.33l1.01-8.34c.02-.18-.03-.31-.14-.38-.12-.07-.26-.1-.43-.1h-1.44c-.31,0-.42-.32-.35-.97l.38-3.24c.04-.23.1-.36.17-.4.08-.04.21-.05.4-.05h1.7c.12,0,.23-.06.33-.19s.17-.27.19-.43l1.1-5.1c.08-.32.29-.48.63-.48h4.24c.15,0,.26.06.33.19.07.13.08.39.04.78l-.61,4.76c-.02.12,0,.22.09.31.08.09.16.14.26.14h2.54c.19,0,.36.04.49.12.13.08.18.24.14.47l-.4,3.55c-.02.23-.08.38-.17.45-.1.07-.27.1-.52.1h-2.68c-.31,0-.49.22-.55.66l-.78,6.62c-.02.07-.03.14-.03.21v.21c0,.44.13.75.4.93.27.19.71.28,1.33.28h1.24c.15,0,.29.1.4.31.12.21.15.4.12.59l-.35,2.76c-.06.58-.3.87-.72.9-.4.05-.83.08-1.28.1s-.9.04-1.34.05-.87.02-1.27.02c-1.33,0-2.41-.37-3.25-1.12Z"/>
    <path class="cls-1" d="m230.43,25.24c-1.1-.69-1.96-1.64-2.58-2.86-.63-1.22-.94-2.63-.94-4.24,0-1.43.23-2.78.69-4.07.46-1.29,1.1-2.44,1.92-3.47.82-1.02,1.77-1.83,2.86-2.41,1.09-.59,2.27-.88,3.54-.88,1.39,0,2.6.33,3.65,1,1.05.67,1.87,1.62,2.45,2.86.59,1.24.88,2.74.88,4.48,0,.3,0,.61-.03.93-.02.32-.05.64-.09.97-.02.21-.08.34-.17.4s-.27.09-.52.09h-8.92c-.23,0-.38.17-.43.52-.06.34-.09.66-.09.93,0,.78.23,1.35.69,1.71.46.36,1.05.53,1.76.53.56,0,1.1-.14,1.62-.41.52-.28,1.08-.76,1.67-1.45.12-.14.24-.2.36-.19.12.01.27.06.45.16l2.45,1.28c.5.25.58.62.23,1.1-.85,1.1-1.66,1.95-2.42,2.53-.77.59-1.57.99-2.41,1.21-.84.22-1.78.33-2.81.33-1.44,0-2.71-.35-3.81-1.04Zm6.49-10.58c.19,0,.36-.1.51-.29.14-.2.22-.5.22-.91,0-.46-.12-.92-.36-1.4-.24-.47-.67-.71-1.28-.71-.39,0-.78.13-1.17.38-.39.25-.73.63-1.01,1.12-.28.5-.46,1.1-.53,1.81h3.64Z"/>
    <path class="cls-1" d="m245.55,25.05c-1.15-.82-1.95-1.75-2.4-2.81-.17-.44-.09-.76.26-.97l2.37-1.34c.25-.14.46-.2.63-.17s.34.18.49.48c.25.44.6.86,1.04,1.26.44.4,1.18.6,2.22.6.17,0,.4-.01.69-.04.29-.02.57-.07.85-.15.28-.08.52-.22.72-.41s.3-.47.3-.81c0-.23-.09-.42-.27-.57-.18-.15-.53-.29-1.02-.43l-2.86-.79c-1.29-.37-2.29-.92-3-1.65-.71-.74-1.07-1.77-1.07-3.1,0-1.52.35-2.78,1.04-3.79.69-1.01,1.61-1.77,2.74-2.28,1.14-.51,2.37-.76,3.7-.76,1.63,0,2.95.37,3.94,1.12.99.75,1.73,1.58,2.21,2.5.08.14.12.29.12.47s-.1.32-.29.43l-2.42,1.28c-.19.09-.35.11-.46.05-.12-.06-.3-.25-.55-.57-.23-.32-.56-.61-1-.88-.43-.26-.98-.4-1.63-.4-.37,0-.72.04-1.05.12-.34.08-.61.21-.82.38-.21.17-.32.41-.32.71,0,.25.06.44.17.57.12.13.37.25.75.36l2.97.76c1.54.39,2.64,1.06,3.29,2.02s.98,2.04.98,3.26-.22,2.19-.65,3.05c-.43.86-1.01,1.57-1.72,2.12-.71.55-1.52.96-2.41,1.22s-1.8.4-2.73.4c-2.06,0-3.67-.41-4.82-1.22Z"/>
    <path class="cls-1" d="m25.57,54.14c.02.15-.05.44-.23.85l-7.18,16.25c-.11.21-.22.34-.34.4-.11.06-.29.08-.53.08h-3.31c-.24,0-.42-.03-.55-.1-.13-.06-.21-.2-.24-.41l-1.37-8.62c-.02-.14-.05-.21-.11-.2-.06,0-.12.08-.18.2l-3.77,8.64c-.1.21-.2.34-.31.4s-.3.08-.55.08h-3.48c-.45,0-.7-.19-.77-.58L.02,54.75c-.05-.27-.02-.48.07-.62.1-.14.3-.22.6-.22h4.01c.26,0,.44.06.54.18s.16.27.18.44l1.3,8.81c.03.16.07.24.12.25.05,0,.1-.07.17-.23l3.84-9.07c.06-.16.14-.26.24-.31s.27-.07.53-.07h3.46c.26,0,.42.06.48.17.06.11.1.26.12.46l1.37,9c.02.1.06.14.12.14s.12-.06.17-.19l3.77-9.19c.06-.16.14-.26.23-.31s.26-.07.52-.07h3.22c.32,0,.49.08.52.23Z"/>
    <path class="cls-1" d="m29.23,71.17c-.03.26-.1.41-.2.47-.1.06-.29.08-.56.08h-3.38c-.24,0-.41-.07-.5-.22-.1-.14-.14-.32-.12-.53l1.63-11.57c.03-.18.08-.29.13-.34.05-.05.16-.07.3-.07h4.06c.13,0,.21.07.25.2.04.14.05.28.04.42l-1.63,11.54Zm1.94-13.78c-.03.24-.1.39-.22.46-.11.06-.3.1-.58.1h-3.62c-.18,0-.29-.08-.34-.23-.05-.15-.06-.33-.02-.54l.41-2.71c.05-.37.21-.55.48-.55h4.03c.13,0,.21.07.24.2.03.14.03.28,0,.44l-.38,2.83Z"/>
    <path class="cls-1" d="m33.92,70.94c-.7-.52-1.04-1.22-1.04-2.1v-.23c0-.07,0-.15.02-.23l.84-5.81c.02-.13-.02-.22-.12-.26-.1-.05-.22-.07-.36-.07h-1.2c-.26,0-.35-.22-.29-.67l.31-2.26c.03-.16.08-.25.14-.28.06-.02.18-.04.34-.04h1.42c.1,0,.19-.04.28-.13s.14-.19.16-.3l.91-3.55c.06-.22.24-.34.53-.34h3.53c.13,0,.22.04.28.13s.07.27.04.54l-.5,3.31c-.02.08,0,.15.07.22.06.06.14.1.22.1h2.11c.16,0,.3.03.41.08.11.06.15.16.12.32l-.34,2.47c-.02.16-.06.26-.14.31s-.22.07-.43.07h-2.23c-.26,0-.41.15-.46.46l-.65,4.61s-.02.1-.02.14v.14c0,.3.11.52.34.65.22.13.59.19,1.1.19h1.03c.13,0,.24.07.34.22.1.14.13.28.1.41l-.29,1.92c-.05.4-.25.61-.6.62-.34.03-.69.06-1.07.07-.38.02-.75.03-1.12.04-.37,0-.72.01-1.05.01-1.1,0-2-.26-2.7-.78Z"/>
    <path class="cls-1" d="m42.53,71.72c-.22,0-.39-.07-.49-.22-.1-.14-.15-.32-.13-.53l2.35-16.66c.03-.18.09-.29.18-.34s.21-.07.35-.07h3.84c.27,0,.38.18.34.53l-.79,5.64c-.05.26.02.32.19.19.53-.4,1.02-.71,1.48-.92s.89-.37,1.3-.46c.41-.09.8-.13,1.19-.13,1.09,0,1.93.29,2.53.88.6.58.9,1.39.9,2.41,0,.13,0,.26-.01.4,0,.14-.03.28-.06.42l-1.18,8.28c-.03.24-.09.4-.18.47-.09.07-.26.11-.52.11h-3.53c-.45,0-.63-.25-.55-.74l1.1-7.82s.02-.09.02-.13v-.11c0-.27-.08-.47-.24-.59-.16-.12-.39-.18-.7-.18-.27,0-.54.05-.79.16-.26.1-.49.26-.71.46-.22.2-.42.44-.61.71l-1.13,7.7c-.03.26-.1.41-.19.47-.1.06-.29.08-.58.08h-3.38Z"/>
    <path class="cls-1" d="m62.81,54.32c.03-.16.08-.27.14-.32.06-.06.2-.08.41-.08h14.59c.21,0,.33.03.37.1.04.06.04.17.01.31l-.43,3.14c-.02.13-.06.21-.13.25s-.19.06-.35.06h-4.25c-.16,0-.26.03-.31.08-.05.06-.09.16-.12.3l-1.85,13.1c-.02.18-.06.3-.14.36-.08.06-.18.1-.31.1h-4.51c-.21,0-.34-.05-.41-.14-.06-.1-.08-.26-.05-.48l1.85-13.03c.02-.19-.06-.29-.24-.29h-4.3c-.32,0-.46-.13-.41-.38l.43-3.07Z"/>
    <path class="cls-1" d="m78.1,71.72c-.22,0-.39-.07-.49-.22-.1-.14-.15-.32-.13-.53l2.35-16.66c.03-.18.09-.29.18-.34s.2-.07.35-.07h3.84c.27,0,.38.18.34.53l-.79,5.64c-.05.26.02.32.19.19.53-.4,1.02-.71,1.48-.92.46-.22.89-.37,1.29-.46s.8-.13,1.19-.13c1.09,0,1.93.29,2.53.88s.9,1.39.9,2.41c0,.13,0,.26-.01.4,0,.14-.03.28-.06.42l-1.18,8.28c-.03.24-.09.4-.18.47-.09.07-.26.11-.52.11h-3.53c-.45,0-.63-.25-.55-.74l1.1-7.82s.03-.09.03-.13v-.11c0-.27-.08-.47-.24-.59-.16-.12-.39-.18-.7-.18-.27,0-.54.05-.79.16-.26.1-.49.26-.71.46-.22.2-.42.44-.61.71l-1.13,7.7c-.03.26-.1.41-.19.47-.1.06-.29.08-.58.08h-3.38Z"/>
    <path class="cls-1" d="m94.92,71.24c-.91-.48-1.63-1.14-2.15-1.99-.52-.85-.78-1.83-.78-2.95,0-.99.19-1.94.58-2.83.38-.9.92-1.7,1.6-2.41s1.47-1.27,2.38-1.68c.9-.41,1.88-.61,2.94-.61,1.15,0,2.16.23,3.04.7.87.46,1.55,1.13,2.04,1.99.49.86.73,1.9.73,3.12,0,.21,0,.42-.02.65-.02.22-.04.45-.07.67-.02.14-.06.24-.14.28s-.22.06-.43.06h-7.42c-.19,0-.31.12-.36.36-.05.24-.07.46-.07.65,0,.54.19.94.58,1.19.38.25.87.37,1.46.37.46,0,.91-.1,1.34-.29.43-.19.9-.53,1.39-1.01.1-.1.2-.14.3-.13.1,0,.23.04.37.11l2.04.89c.42.18.48.43.19.77-.7.77-1.38,1.36-2.02,1.76s-1.31.69-2,.84c-.7.15-1.48.23-2.34.23-1.2,0-2.26-.24-3.17-.72Zm5.4-7.37c.16,0,.3-.07.42-.2.12-.14.18-.35.18-.64,0-.32-.1-.64-.3-.97-.2-.33-.55-.49-1.07-.49-.32,0-.64.09-.97.26s-.61.44-.84.78c-.23.34-.38.76-.44,1.26h3.02Z"/>
    <path class="cls-1" d="m128.04,69.15c-.77,1.04-1.74,1.77-2.93,2.18s-2.53.62-4.03.62c-2.5,0-4.27-.51-5.33-1.52-1.06-1.02-1.58-2.46-1.58-4.33,0-.32.02-.65.05-1,.03-.34.07-.69.12-1.04l1.37-9.74c.03-.18.08-.29.13-.34.05-.05.15-.07.28-.07h4.56c.14,0,.26.07.35.2.09.14.12.28.08.44l-1.44,10.37c-.02.19-.04.37-.06.54s-.04.33-.04.49c0,.82.19,1.38.56,1.7.38.32.88.48,1.53.48.53,0,1.03-.11,1.51-.34.48-.22.89-.6,1.25-1.13.35-.53.59-1.23.72-2.11l1.44-10.25c.03-.18.07-.29.12-.34s.14-.07.29-.07h3.6c.14,0,.26.07.35.2.09.14.12.28.08.44l-1.44,10.27c-.26,1.84-.77,3.28-1.54,4.32Z"/>
    <path class="cls-1" d="m132.34,71.11c-.96-.57-1.62-1.22-1.99-1.96-.14-.3-.07-.53.21-.67l1.97-.94c.21-.1.38-.14.53-.12.14.02.28.13.41.34.21.3.5.6.87.88.37.28.98.42,1.85.42.14,0,.34,0,.58-.02.24-.02.47-.05.71-.11s.43-.15.6-.29.25-.32.25-.56c0-.16-.08-.29-.23-.4-.15-.1-.44-.2-.85-.3l-2.38-.55c-1.07-.25-1.9-.64-2.5-1.15s-.89-1.23-.89-2.16c0-1.06.29-1.94.87-2.64s1.34-1.23,2.28-1.58c.94-.35,1.97-.53,3.07-.53,1.36,0,2.45.26,3.28.78.82.52,1.44,1.1,1.84,1.74.06.1.1.2.1.32s-.08.22-.24.3l-2.02.89c-.16.06-.29.08-.38.04s-.25-.17-.46-.4c-.19-.22-.47-.43-.83-.61-.36-.18-.81-.28-1.36-.28-.3,0-.6.03-.88.08-.28.06-.51.14-.69.26s-.26.28-.26.49c0,.18.05.31.14.4.1.09.3.17.62.25l2.47.53c1.28.27,2.19.74,2.74,1.4.54.66.82,1.42.82,2.27s-.18,1.52-.54,2.12c-.36.6-.84,1.09-1.43,1.48-.59.38-1.26.67-2,.85s-1.5.28-2.27.28c-1.71,0-3.05-.28-4.01-.85Z"/>
    <path class="cls-1" d="m146.47,71.24c-.91-.48-1.63-1.14-2.15-1.99-.52-.85-.78-1.83-.78-2.95,0-.99.19-1.94.58-2.83.38-.9.92-1.7,1.6-2.41s1.47-1.27,2.38-1.68c.9-.41,1.88-.61,2.94-.61,1.15,0,2.16.23,3.04.7.87.46,1.55,1.13,2.04,1.99.49.86.73,1.9.73,3.12,0,.21,0,.42-.02.65-.02.22-.04.45-.07.67-.02.14-.06.24-.14.28s-.22.06-.43.06h-7.42c-.19,0-.31.12-.36.36-.05.24-.07.46-.07.65,0,.54.19.94.58,1.19.38.25.87.37,1.46.37.46,0,.91-.1,1.34-.29.43-.19.9-.53,1.39-1.01.1-.1.2-.14.3-.13.1,0,.23.04.37.11l2.04.89c.42.18.48.43.19.77-.7.77-1.38,1.36-2.02,1.76s-1.31.69-2,.84c-.7.15-1.48.23-2.34.23-1.2,0-2.26-.24-3.17-.72Zm5.4-7.37c.16,0,.3-.07.42-.2.12-.14.18-.35.18-.64,0-.32-.1-.64-.3-.97-.2-.33-.55-.49-1.07-.49-.32,0-.64.09-.97.26s-.61.44-.84.78c-.23.34-.38.76-.44,1.26h3.02Z"/>
    <path class="cls-1" d="m157.37,71.51c-.1-.14-.14-.32-.12-.53l1.63-11.57c.03-.18.07-.29.12-.34.05-.05.14-.07.29-.07h3.82c.13,0,.23.05.31.14.08.1.1.26.07.48l-.14.86c-.02.19,0,.3.07.31.06.02.15-.03.26-.14.32-.35.7-.67,1.13-.96.43-.29.87-.52,1.32-.68s.84-.25,1.18-.25.58.02.77.07c.19.05.27.16.24.34l-.48,3.5c-.03.24-.08.39-.13.44-.06.06-.14.08-.25.06-.42-.06-.81-.11-1.19-.13-.38-.02-.65-.04-.83-.04-.29,0-.58.05-.87.16-.29.1-.55.24-.79.42s-.44.37-.59.58-.24.42-.28.62l-.89,6.38c-.03.26-.1.41-.21.47-.1.06-.29.08-.56.08h-3.38c-.24,0-.41-.07-.5-.22Z"/>
    <path class="cls-1" d="m179.19,53.91c.27,0,.38.22.34.65l-2.33,16.61c-.03.26-.1.41-.21.47-.1.06-.29.08-.56.08h-4.18c-.26,0-.4-.07-.44-.22-.04-.14-.05-.32-.04-.53l2.35-16.66c.03-.18.08-.29.13-.34.05-.05.15-.07.28-.07h4.66Z"/>
    <path class="cls-1" d="m179.27,71.51c-.04-.14-.05-.32-.04-.53l1.63-11.57c.03-.18.07-.29.12-.34.05-.05.14-.07.29-.07h4.1c.1,0,.17.02.21.06.05.04.06.14.03.3l-.17,1.08c-.02.21.08.22.29.02.56-.5,1.18-.9,1.86-1.22.68-.32,1.37-.48,2.05-.48,1.04,0,1.87.31,2.5.92.62.62.94,1.42.94,2.41,0,.11,0,.22-.01.34,0,.11-.02.23-.04.36l-1.18,8.35c-.03.24-.1.4-.21.47-.1.07-.28.11-.54.11h-3.67c-.21,0-.33-.07-.36-.2-.03-.14-.03-.32,0-.54l1.08-7.68c.02-.08.03-.15.04-.22,0-.06.01-.11.01-.14,0-.27-.08-.47-.25-.6s-.4-.19-.71-.19c-.27,0-.54.05-.79.16-.26.1-.49.26-.71.46-.21.2-.42.44-.61.71l-1.13,7.7c-.03.26-.1.41-.21.47s-.31.08-.6.08h-3.55c-.21,0-.33-.07-.37-.22Z"/>
    <path class="cls-1" d="m196.39,71.58c-.05-.1-.05-.32,0-.67l2.33-16.58c.03-.19.07-.31.12-.35.05-.04.16-.06.34-.06h6.72c.21,0,.36.05.46.14.1.1.16.23.19.41l1.44,7.58c.02.1.05.14.11.13.06,0,.1-.05.13-.13l3.38-7.56c.14-.38.36-.58.65-.58h7.11c.26,0,.36.13.31.38l-2.38,16.87c-.03.26-.1.41-.19.47-.1.06-.28.08-.55.08h-4.06c-.24,0-.42-.05-.53-.14-.11-.1-.14-.3-.1-.6l1.49-10.54c.03-.13.02-.19-.04-.19s-.12.08-.2.24l-5.02,10.92c-.06.13-.14.21-.23.25s-.2.06-.32.06h-2.52c-.14,0-.26-.04-.35-.11-.09-.07-.16-.22-.21-.44l-1.94-10.61c-.03-.18-.09-.26-.17-.26s-.14.07-.17.22l-1.54,10.82c-.02.16-.06.26-.13.31s-.19.07-.35.07h-3.43c-.19,0-.31-.05-.36-.14Z"/>
    <path class="cls-1" d="m225.11,71.17c-.03.26-.1.41-.2.47-.1.06-.29.08-.56.08h-3.38c-.24,0-.41-.07-.51-.22-.1-.14-.13-.32-.12-.53l1.63-11.57c.03-.18.07-.29.13-.34.06-.05.16-.07.3-.07h4.05c.13,0,.21.07.25.2.04.14.05.28.04.42l-1.63,11.54Zm1.95-13.78c-.03.24-.11.39-.22.46-.11.06-.3.1-.58.1h-3.62c-.18,0-.29-.08-.34-.23-.05-.15-.06-.33-.03-.54l.41-2.71c.05-.37.21-.55.48-.55h4.03c.13,0,.21.07.24.2.03.14.03.28,0,.44l-.38,2.83Z"/>
    <path class="cls-1" d="m226.92,71.51c-.04-.14-.05-.32-.04-.53l1.63-11.57c.03-.18.07-.29.12-.34.05-.05.14-.07.29-.07h4.1c.1,0,.17.02.22.06.05.04.05.14.02.3l-.17,1.08c-.02.21.08.22.29.02.56-.5,1.18-.9,1.86-1.22.68-.32,1.36-.48,2.05-.48,1.04,0,1.87.31,2.49.92.62.62.94,1.42.94,2.41,0,.11,0,.22-.01.34,0,.11-.02.23-.04.36l-1.18,8.35c-.03.24-.1.4-.2.47-.11.07-.29.11-.54.11h-3.67c-.21,0-.33-.07-.36-.2-.03-.14-.03-.32,0-.54l1.08-7.68c.02-.08.03-.15.04-.22,0-.06.01-.11.01-.14,0-.27-.08-.47-.25-.6s-.4-.19-.71-.19c-.27,0-.54.05-.79.16-.26.1-.49.26-.71.46-.22.2-.42.44-.61.71l-1.13,7.7c-.03.26-.11.41-.22.47-.11.06-.31.08-.6.08h-3.55c-.21,0-.33-.07-.37-.22Z"/>
    <path class="cls-1" d="m249.85,71.72c-.16,0-.3-.03-.43-.1-.13-.06-.18-.2-.14-.41l.07-.46c.03-.13.01-.2-.06-.23-.07-.02-.17.02-.3.13-.34.27-.68.51-1.03.71-.35.2-.72.35-1.11.44-.38.1-.81.14-1.27.14-1.26,0-2.27-.43-3.02-1.3-.75-.86-1.13-2.13-1.13-3.79,0-1.09.14-2.12.43-3.08.29-.97.7-1.83,1.22-2.59.53-.76,1.15-1.36,1.87-1.79.72-.43,1.51-.65,2.38-.65.59,0,1.11.11,1.55.34.44.22.85.59,1.23,1.1.11.14.24.2.37.18.13-.02.24-.26.3-.71l.77-5.33c.03-.18.1-.29.19-.35.1-.06.22-.08.36-.08h3.89c.26,0,.35.23.29.7l-2.35,16.58c-.02.21-.08.35-.18.42-.1.07-.28.11-.54.11h-3.36Zm.58-9.17c-.21-.3-.42-.52-.63-.64-.22-.12-.48-.18-.8-.18-.58,0-1.04.19-1.4.58s-.64.87-.84,1.45c-.2.58-.34,1.18-.42,1.79-.08.61-.12,1.14-.12,1.58,0,.48.05.86.15,1.15.11.29.26.49.47.61.21.12.46.18.74.18.35,0,.68-.08.98-.24.3-.16.56-.37.77-.64.21-.26.33-.55.36-.85l.74-4.8Z"/>
  </g>
</svg>