<?xml version="1.0" encoding="UTF-8"?>
<svg id="Layer_2" data-name="Layer 2" xmlns="http://www.w3.org/2000/svg" viewBox="0 0 485.7 55.19">
  <defs>
    <style>
      .cls-1 {
        fill: #0f0b0a;
      }

      .cls-1, .cls-2 {
        stroke-width: 0px;
      }

      .cls-2 {
        fill: #f0b416;
      }
    </style>
  </defs>
  <g id="Layer_1-2" data-name="Layer 1">
    <ellipse id="Ellipse_1" data-name="Ellipse 1" class="cls-2" cx="407.9" cy="27.59" rx="77.8" ry="27.59"/>
    <path class="cls-1" d="m13.26,20.01c1.02.5,1.81,1.19,2.39,2.05.58.86.89,1.86.94,2.98.02.38-.13.58-.43.6l-4.06.24c-.26.02-.4-.22-.43-.72-.05-.64-.2-1.17-.47-1.58s-.77-.62-1.52-.62c-.67,0-1.24.18-1.72.53-.47.35-.86.82-1.18,1.39-.31.58-.56,1.21-.73,1.9-.18.69-.3,1.37-.37,2.05-.07.68-.11,1.3-.11,1.86,0,1.09.18,1.85.55,2.28.37.43.91.65,1.63.65.85,0,1.62-.22,2.33-.65.7-.43,1.3-1.14,1.8-2.14.13-.27.38-.36.74-.26l3.24.77c.19.05.18.36-.02.94-.08.22-.25.55-.5.97-.26.42-.61.88-1.06,1.38-.45.5-1,.96-1.66,1.4-.66.44-1.42.8-2.28,1.09-.86.29-1.84.43-2.93.43-1.55,0-2.88-.34-4-1.01-1.11-.67-1.96-1.6-2.54-2.77-.58-1.18-.88-2.53-.88-4.07,0-1.12.13-2.2.4-3.23.26-1.03.66-1.98,1.19-2.86.53-.87,1.18-1.64,1.96-2.29.78-.66,1.68-1.16,2.7-1.52,1.02-.36,2.16-.54,3.41-.54,1.39,0,2.6.25,3.61.76Z"/>
    <path class="cls-1" d="m16.75,37.09c-.1-.14-.14-.32-.12-.53l1.63-11.57c.03-.18.07-.29.12-.34.05-.05.14-.07.29-.07h3.82c.13,0,.23.05.31.14s.1.26.07.48l-.14.86c-.02.19,0,.3.07.31s.15-.03.26-.14c.32-.35.7-.67,1.13-.96.43-.29.87-.52,1.32-.68s.84-.25,1.18-.25.58.02.77.07.27.16.24.34l-.48,3.5c-.03.24-.08.39-.13.44-.06.06-.14.08-.25.06-.42-.06-.81-.11-1.19-.13-.38-.02-.65-.04-.83-.04-.29,0-.58.05-.86.16-.29.1-.55.24-.79.42-.24.18-.44.37-.59.58s-.24.42-.28.62l-.89,6.38c-.03.26-.1.41-.2.47-.1.06-.29.08-.56.08h-3.38c-.24,0-.41-.07-.5-.22Z"/>
    <path class="cls-1" d="m30,36.82c-.91-.48-1.63-1.14-2.15-1.99-.52-.85-.78-1.83-.78-2.95,0-.99.19-1.94.58-2.83.38-.9.92-1.7,1.6-2.41.68-.71,1.47-1.27,2.38-1.68.9-.41,1.88-.61,2.94-.61,1.15,0,2.16.23,3.04.7.87.46,1.55,1.13,2.04,1.99.49.86.73,1.9.73,3.12,0,.21,0,.42-.02.65-.02.22-.04.45-.07.67-.02.14-.06.24-.14.28s-.22.06-.43.06h-7.42c-.19,0-.31.12-.36.36-.05.24-.07.46-.07.65,0,.54.19.94.58,1.19.38.25.87.37,1.46.37.46,0,.91-.1,1.34-.29.43-.19.9-.53,1.39-1.01.1-.1.2-.14.3-.13.1,0,.23.04.37.11l2.04.89c.42.18.48.43.19.77-.7.77-1.38,1.36-2.02,1.76-.64.41-1.31.69-2,.84-.7.15-1.48.23-2.34.23-1.2,0-2.26-.24-3.17-.72Zm5.4-7.37c.16,0,.3-.07.42-.2.12-.14.18-.35.18-.64,0-.32-.1-.64-.3-.97-.2-.33-.56-.49-1.07-.49-.32,0-.64.09-.97.26-.33.18-.61.44-.84.78-.23.34-.38.76-.44,1.26h3.02Z"/>
    <path class="cls-1" d="m46.13,37.27c-.64.18-1.31.28-2.02.28-1.12,0-1.99-.3-2.62-.91s-.94-1.37-.94-2.28.25-1.74.76-2.38c.5-.64,1.16-1.16,1.96-1.55.8-.39,1.66-.67,2.59-.84s1.81-.25,2.64-.25h.17c.3,0,.48-.16.53-.48l.07-.41c.02-.06.02-.12.02-.18v-.16c0-.32-.09-.55-.26-.7-.18-.14-.45-.22-.82-.22s-.78.07-1.19.2c-.41.14-.74.46-1,.97-.05.1-.11.16-.19.19-.08.03-.22.03-.43,0l-3.05-.62c-.13-.03-.23-.12-.3-.25-.07-.14-.04-.39.11-.76.51-.94,1.31-1.61,2.39-2,1.08-.39,2.38-.59,3.9-.59,1.36,0,2.44.14,3.23.43s1.36.69,1.69,1.2c.34.51.5,1.1.5,1.78,0,.11,0,.22-.01.34,0,.11-.02.23-.04.36l-1.18,8.35c-.03.24-.07.38-.12.43-.05.05-.18.07-.41.07h-3.29c-.21,0-.34-.07-.38-.22-.05-.14-.09-.33-.12-.55l-.02-.29c-.03-.35-.24-.32-.62.1-.4.43-.92.74-1.56.92Zm2.66-5.48c.03-.14.04-.23.02-.26-.02-.03-.1-.04-.24-.02l-.34.02c-.24.02-.53.06-.86.14s-.66.2-.98.36c-.32.16-.58.37-.79.62-.21.26-.31.57-.31.94,0,.26.09.48.26.66.18.18.44.28.79.28s.69-.05.96-.14c.27-.1.49-.21.65-.34.16-.13.31-.28.44-.46.14-.18.21-.35.23-.53l.17-1.27Z"/>
    <path class="cls-1" d="m56.75,36.52c-.7-.52-1.04-1.22-1.04-2.1v-.23c0-.07,0-.15.02-.23l.84-5.81c.02-.13-.02-.22-.12-.26-.1-.05-.22-.07-.36-.07h-1.2c-.26,0-.35-.22-.29-.67l.31-2.26c.03-.16.08-.25.14-.28.06-.02.18-.04.34-.04h1.42c.1,0,.19-.04.28-.13s.14-.19.16-.3l.91-3.55c.06-.22.24-.34.53-.34h3.53c.13,0,.22.04.28.13.06.09.07.27.04.54l-.5,3.31c-.02.08,0,.15.07.22.06.06.14.1.22.1h2.11c.16,0,.3.03.41.08.11.06.15.16.12.32l-.34,2.47c-.02.16-.06.26-.14.31-.08.05-.22.07-.43.07h-2.23c-.26,0-.41.15-.46.46l-.65,4.61s-.02.1-.02.14v.14c0,.3.11.52.34.65.22.13.59.19,1.1.19h1.03c.13,0,.24.07.34.22.1.14.13.28.1.41l-.29,1.92c-.05.4-.25.61-.6.62-.34.03-.69.06-1.07.07s-.75.03-1.12.04-.72.01-1.06.01c-1.1,0-2-.26-2.7-.78Z"/>
    <path class="cls-1" d="m69.48,36.75c-.03.26-.1.41-.2.47-.1.06-.29.08-.56.08h-3.38c-.24,0-.41-.07-.5-.22-.1-.14-.14-.32-.12-.53l1.63-11.57c.03-.18.08-.29.13-.34.06-.05.16-.07.3-.07h4.06c.13,0,.21.07.25.2.04.14.05.28.04.42l-1.63,11.54Zm1.94-13.78c-.03.24-.1.39-.22.46-.11.06-.3.1-.58.1h-3.62c-.18,0-.29-.08-.34-.23-.05-.15-.06-.33-.02-.54l.41-2.71c.05-.37.21-.55.48-.55h4.03c.13,0,.21.07.24.2.03.14.03.28,0,.44l-.38,2.83Z"/>
    <path class="cls-1" d="m71.29,37.09c-.04-.14-.05-.32-.04-.53l1.63-11.57c.03-.18.07-.29.12-.34.05-.05.14-.07.29-.07h4.1c.1,0,.17.02.22.06.05.04.06.14.02.3l-.17,1.08c-.02.21.08.22.29.02.56-.5,1.18-.9,1.86-1.22.68-.32,1.36-.48,2.05-.48,1.04,0,1.87.31,2.5.92.62.62.94,1.42.94,2.41,0,.11,0,.22-.01.34,0,.11-.02.23-.04.36l-1.18,8.35c-.03.24-.1.4-.2.47-.1.07-.28.11-.54.11h-3.67c-.21,0-.33-.07-.36-.2-.03-.14-.03-.32,0-.54l1.08-7.68c.02-.08.03-.15.04-.22,0-.06.01-.11.01-.14,0-.27-.08-.47-.25-.6s-.4-.19-.71-.19c-.27,0-.54.05-.79.16-.26.1-.49.26-.71.46s-.42.44-.61.71l-1.13,7.7c-.03.26-.1.41-.22.47-.11.06-.31.08-.6.08h-3.55c-.21,0-.33-.07-.37-.22Z"/>
    <path class="cls-1" d="m85.93,40.79c-1.19-.46-1.79-1.14-1.79-2.02,0-.61.26-1.08.78-1.43.52-.34,1.1-.6,1.74-.78.19-.06.3-.14.32-.23s-.05-.16-.23-.23c-.4-.14-.71-.35-.92-.61-.22-.26-.32-.63-.32-1.09s.15-.86.44-1.2c.3-.34.66-.62,1.1-.86s.86-.42,1.26-.55c.21-.08.33-.16.37-.23.04-.07-.03-.14-.2-.2-.59-.21-1.06-.55-1.42-1.02-.35-.47-.53-1.04-.53-1.69,0-.77.18-1.42.54-1.96.36-.54.84-.98,1.45-1.32.61-.34,1.28-.59,2.03-.74.74-.15,1.5-.23,2.27-.23,1.23,0,2.19.13,2.88.38.69.26,1.2.54,1.54.86.13.11.28.1.44-.04.17-.14.32-.28.44-.44.26-.3.56-.55.92-.74.36-.19.71-.34,1.06-.44.34-.1.61-.16.8-.16.18,0,.32.03.43.08.11.06.15.2.12.42l-.29,2.16c-.03.27-.09.44-.17.52-.08.07-.19.1-.34.08-.21-.02-.45-.03-.72-.04-.27,0-.46-.01-.55-.01-.58,0-.78.2-.6.6.03.06.05.15.06.26,0,.11.01.23.01.36,0,.75-.21,1.38-.62,1.9-.42.51-.96.92-1.62,1.24-.66.31-1.37.54-2.12.68-.75.14-1.46.22-2.14.22-.11,0-.3,0-.56.02-.26.02-.55.05-.85.11-.3.06-.56.14-.78.25s-.32.26-.32.46c0,.11.07.18.22.22s.37.06.67.1l3.62.22c1.65.1,2.85.45,3.6,1.07.75.62,1.13,1.42,1.13,2.41,0,.72-.18,1.34-.53,1.85-.35.51-.82.93-1.4,1.25-.58.32-1.24.57-1.97.76-.73.18-1.48.31-2.26.38-.78.07-1.52.11-2.22.11-2,0-3.6-.23-4.79-.7Zm6.82-1.54c.49-.08.88-.18,1.19-.31s.53-.28.68-.46c.15-.18.23-.36.23-.55,0-.22-.1-.39-.31-.49s-.57-.16-1.08-.18l-3.46-.17c-.19,0-.44.04-.74.12-.3.08-.58.2-.82.37-.24.17-.36.4-.36.68,0,.34.22.6.66.8.44.2,1.2.3,2.27.3.67,0,1.25-.04,1.74-.12Zm.8-9.42c.32-.18.58-.44.77-.77.19-.33.29-.7.29-1.12,0-.38-.15-.7-.44-.95s-.73-.37-1.31-.37c-.38,0-.74.1-1.06.31-.32.21-.58.48-.77.82s-.29.7-.29,1.1c0,.34.16.63.48.88.32.25.74.37,1.25.37.4,0,.76-.09,1.08-.28Z"/>
    <path class="cls-1" d="m133.09,19.72c.02.15-.05.44-.23.85l-7.18,16.25c-.11.21-.22.34-.34.4-.11.06-.29.08-.53.08h-3.31c-.24,0-.42-.03-.55-.1-.13-.06-.21-.2-.24-.41l-1.37-8.62c-.02-.14-.05-.21-.11-.2-.06,0-.12.08-.18.2l-3.77,8.64c-.1.21-.2.34-.31.4-.11.06-.3.08-.55.08h-3.48c-.45,0-.7-.19-.77-.58l-2.64-16.39c-.05-.27-.02-.48.07-.62.1-.14.3-.22.6-.22h4.01c.26,0,.44.06.54.18s.16.27.18.44l1.3,8.81c.03.16.07.24.12.25s.1-.07.17-.23l3.84-9.07c.06-.16.14-.26.24-.31.1-.05.27-.07.53-.07h3.46c.26,0,.42.06.48.17.06.11.1.26.12.46l1.37,9c.02.1.06.14.12.14s.12-.06.17-.19l3.77-9.19c.06-.16.14-.26.23-.31s.26-.07.52-.07h3.22c.32,0,.49.08.52.23Z"/>
    <path class="cls-1" d="m133.22,36.82c-.91-.48-1.63-1.14-2.15-1.99-.52-.85-.78-1.83-.78-2.95,0-.99.19-1.94.58-2.83.38-.9.92-1.7,1.6-2.41.68-.71,1.47-1.27,2.38-1.68.9-.41,1.88-.61,2.94-.61,1.15,0,2.16.23,3.04.7.87.46,1.55,1.13,2.04,1.99.49.86.73,1.9.73,3.12,0,.21,0,.42-.02.65-.02.22-.04.45-.07.67-.02.14-.06.24-.14.28s-.22.06-.43.06h-7.42c-.19,0-.31.12-.36.36-.05.24-.07.46-.07.65,0,.54.19.94.58,1.19.38.25.87.37,1.46.37.46,0,.91-.1,1.34-.29.43-.19.9-.53,1.39-1.01.1-.1.2-.14.3-.13.1,0,.23.04.37.11l2.04.89c.42.18.48.43.19.77-.7.77-1.38,1.36-2.02,1.76-.64.41-1.31.69-2,.84-.7.15-1.48.23-2.34.23-1.2,0-2.26-.24-3.17-.72Zm5.4-7.37c.16,0,.3-.07.42-.2.12-.14.18-.35.18-.64,0-.32-.1-.64-.3-.97-.2-.33-.56-.49-1.07-.49-.32,0-.64.09-.97.26-.33.18-.61.44-.84.78-.23.34-.38.76-.44,1.26h3.02Z"/>
    <path class="cls-1" d="m144.65,37.3c-.26,0-.43-.07-.53-.22-.1-.14-.14-.32-.12-.53l2.35-16.66c.03-.18.08-.29.13-.34s.15-.07.28-.07h4.1c.14,0,.23.07.25.2.02.14.02.28-.01.44l-.72,5.16c-.02.13,0,.2.06.23.06.02.16-.02.3-.13.38-.29.75-.51,1.09-.66.34-.15.68-.25,1.02-.31.34-.06.66-.08.98-.08.93,0,1.71.21,2.34.62.63.42,1.12,1,1.45,1.76.34.76.5,1.68.5,2.75,0,.93-.12,1.87-.35,2.82s-.6,1.82-1.1,2.62-1.16,1.43-1.96,1.91c-.8.48-1.76.72-2.88.72-.46,0-.91-.08-1.33-.24-.42-.16-.82-.39-1.18-.68-.36-.3-.68-.66-.95-1.09-.05-.08-.12-.12-.22-.12s-.18.11-.26.34l-.38,1.06c-.06.21-.14.34-.24.41-.1.06-.22.1-.38.1h-2.26Zm4.66-4.3c-.05.4-.03.73.06.98.09.26.24.44.44.56.21.12.46.18.77.18.58,0,1.05-.2,1.42-.61.37-.41.65-.92.84-1.52.19-.61.33-1.23.41-1.86.08-.63.12-1.17.12-1.62,0-.7-.11-1.19-.32-1.45-.22-.26-.53-.4-.95-.4s-.8.1-1.14.3c-.34.2-.66.45-.95.76l-.7,4.68Z"/>
    <path class="cls-1" d="m160.37,36.69c-.96-.57-1.62-1.22-1.99-1.96-.14-.3-.07-.53.22-.67l1.97-.94c.21-.1.38-.14.53-.12s.28.13.41.34c.21.3.5.6.86.88.37.28.98.42,1.85.42.14,0,.34,0,.58-.02.24-.02.48-.05.71-.11.23-.06.43-.15.6-.29s.25-.32.25-.56c0-.16-.08-.29-.23-.4-.15-.1-.44-.2-.85-.3l-2.38-.55c-1.07-.25-1.9-.64-2.5-1.15-.59-.51-.89-1.23-.89-2.16,0-1.06.29-1.94.86-2.64.58-.7,1.34-1.23,2.28-1.58.94-.35,1.97-.53,3.07-.53,1.36,0,2.45.26,3.28.78.82.52,1.44,1.1,1.84,1.74.06.1.1.2.1.32s-.08.22-.24.3l-2.02.89c-.16.06-.29.08-.38.04-.1-.04-.25-.17-.46-.4-.19-.22-.47-.43-.83-.61-.36-.18-.81-.28-1.36-.28-.3,0-.6.03-.88.08-.28.06-.51.14-.68.26-.18.12-.26.28-.26.49,0,.18.05.31.14.4.1.09.3.17.62.25l2.47.53c1.28.27,2.19.74,2.74,1.4s.82,1.42.82,2.27-.18,1.52-.54,2.12c-.36.6-.84,1.09-1.43,1.48-.59.38-1.26.67-2,.85s-1.5.28-2.27.28c-1.71,0-3.05-.28-4.01-.85Z"/>
    <path class="cls-1" d="m176.11,36.75c-.03.26-.1.41-.2.47-.1.06-.29.08-.56.08h-3.38c-.24,0-.41-.07-.5-.22-.1-.14-.14-.32-.12-.53l1.63-11.57c.03-.18.08-.29.13-.34.06-.05.16-.07.3-.07h4.06c.13,0,.21.07.25.2.04.14.05.28.04.42l-1.63,11.54Zm1.94-13.78c-.03.24-.1.39-.22.46-.11.06-.3.1-.58.1h-3.62c-.18,0-.29-.08-.34-.23-.05-.15-.06-.33-.02-.54l.41-2.71c.05-.37.21-.55.48-.55h4.03c.13,0,.21.07.24.2.03.14.03.28,0,.44l-.38,2.83Z"/>
    <path class="cls-1" d="m180.8,36.52c-.7-.52-1.04-1.22-1.04-2.1v-.23c0-.07,0-.15.02-.23l.84-5.81c.02-.13-.02-.22-.12-.26-.1-.05-.22-.07-.36-.07h-1.2c-.26,0-.35-.22-.29-.67l.31-2.26c.03-.16.08-.25.14-.28.06-.02.18-.04.34-.04h1.42c.1,0,.19-.04.28-.13s.14-.19.16-.3l.91-3.55c.06-.22.24-.34.53-.34h3.53c.13,0,.22.04.28.13.06.09.07.27.04.54l-.5,3.31c-.02.08,0,.15.07.22.06.06.14.1.22.1h2.11c.16,0,.3.03.41.08.11.06.15.16.12.32l-.34,2.47c-.02.16-.06.26-.14.31-.08.05-.22.07-.43.07h-2.23c-.26,0-.41.15-.46.46l-.65,4.61s-.02.1-.02.14v.14c0,.3.11.52.34.65.22.13.59.19,1.1.19h1.03c.13,0,.24.07.34.22.1.14.13.28.1.41l-.29,1.92c-.05.4-.25.61-.6.62-.34.03-.69.06-1.07.07s-.75.03-1.12.04-.72.01-1.06.01c-1.1,0-2-.26-2.7-.78Z"/>
    <path class="cls-1" d="m191.45,36.82c-.91-.48-1.63-1.14-2.15-1.99-.52-.85-.78-1.83-.78-2.95,0-.99.19-1.94.58-2.83.38-.9.92-1.7,1.6-2.41.68-.71,1.47-1.27,2.38-1.68.9-.41,1.88-.61,2.94-.61,1.15,0,2.16.23,3.04.7.87.46,1.55,1.13,2.04,1.99.49.86.73,1.9.73,3.12,0,.21,0,.42-.02.65-.02.22-.04.45-.07.67-.02.14-.06.24-.14.28s-.22.06-.43.06h-7.42c-.19,0-.31.12-.36.36-.05.24-.07.46-.07.65,0,.54.19.94.58,1.19.38.25.87.37,1.46.37.46,0,.91-.1,1.34-.29.43-.19.9-.53,1.39-1.01.1-.1.2-.14.3-.13.1,0,.23.04.37.11l2.04.89c.42.18.48.43.19.77-.7.77-1.38,1.36-2.02,1.76-.64.41-1.31.69-2,.84-.7.15-1.48.23-2.34.23-1.2,0-2.26-.24-3.17-.72Zm5.4-7.37c.16,0,.3-.07.42-.2.12-.14.18-.35.18-.64,0-.32-.1-.64-.3-.97-.2-.33-.56-.49-1.07-.49-.32,0-.64.09-.97.26-.33.18-.61.44-.84.78-.23.34-.38.76-.44,1.26h3.02Z"/>
    <path class="cls-1" d="m204.02,36.69c-.96-.57-1.62-1.22-1.99-1.96-.14-.3-.07-.53.22-.67l1.97-.94c.21-.1.38-.14.53-.12s.28.13.41.34c.21.3.5.6.86.88.37.28.98.42,1.85.42.14,0,.34,0,.58-.02.24-.02.48-.05.71-.11.23-.06.43-.15.6-.29s.25-.32.25-.56c0-.16-.08-.29-.23-.4-.15-.1-.44-.2-.85-.3l-2.38-.55c-1.07-.25-1.9-.64-2.5-1.15-.59-.51-.89-1.23-.89-2.16,0-1.06.29-1.94.86-2.64.58-.7,1.34-1.23,2.28-1.58.94-.35,1.97-.53,3.07-.53,1.36,0,2.45.26,3.28.78.82.52,1.44,1.1,1.84,1.74.06.1.1.2.1.32s-.08.22-.24.3l-2.02.89c-.16.06-.29.08-.38.04-.1-.04-.25-.17-.46-.4-.19-.22-.47-.43-.83-.61-.36-.18-.81-.28-1.36-.28-.3,0-.6.03-.88.08-.28.06-.51.14-.68.26-.18.12-.26.28-.26.49,0,.18.05.31.14.4.1.09.3.17.62.25l2.47.53c1.28.27,2.19.74,2.74,1.4s.82,1.42.82,2.27-.18,1.52-.54,2.12c-.36.6-.84,1.09-1.43,1.48-.59.38-1.26.67-2,.85s-1.5.28-2.27.28c-1.71,0-3.05-.28-4.01-.85Z"/>
    <path class="cls-1" d="m247.09,19.72c.02.15-.05.44-.23.85l-7.18,16.25c-.11.21-.22.34-.34.4-.11.06-.29.08-.53.08h-3.31c-.24,0-.42-.03-.55-.1-.13-.06-.21-.2-.24-.41l-1.37-8.62c-.02-.14-.05-.21-.11-.2-.06,0-.12.08-.18.2l-3.77,8.64c-.1.21-.2.34-.31.4s-.3.08-.55.08h-3.48c-.45,0-.7-.19-.77-.58l-2.64-16.39c-.05-.27-.02-.48.07-.62.1-.14.3-.22.6-.22h4.01c.26,0,.44.06.54.18s.16.27.18.44l1.3,8.81c.03.16.07.24.12.25.05,0,.1-.07.17-.23l3.84-9.07c.06-.16.14-.26.24-.31s.27-.07.53-.07h3.46c.26,0,.42.06.48.17.06.11.1.26.12.46l1.37,9c.02.1.06.14.12.14s.12-.06.17-.19l3.77-9.19c.06-.16.14-.26.23-.31s.26-.07.52-.07h3.22c.32,0,.49.08.52.23Z"/>
    <path class="cls-1" d="m250.75,36.75c-.03.26-.1.41-.2.47-.1.06-.29.08-.56.08h-3.38c-.24,0-.41-.07-.5-.22-.1-.14-.14-.32-.12-.53l1.63-11.57c.03-.18.08-.29.13-.34.05-.05.16-.07.3-.07h4.06c.13,0,.21.07.25.2.04.14.05.28.04.42l-1.63,11.54Zm1.94-13.78c-.03.24-.1.39-.22.46-.11.06-.3.1-.58.1h-3.62c-.18,0-.29-.08-.34-.23-.05-.15-.06-.33-.02-.54l.41-2.71c.05-.37.21-.55.48-.55h4.03c.13,0,.21.07.24.2.03.14.03.28,0,.44l-.38,2.83Z"/>
    <path class="cls-1" d="m255.44,36.52c-.7-.52-1.04-1.22-1.04-2.1v-.23c0-.07,0-.15.02-.23l.84-5.81c.02-.13-.02-.22-.12-.26-.1-.05-.22-.07-.36-.07h-1.2c-.26,0-.35-.22-.29-.67l.31-2.26c.03-.16.08-.25.14-.28.06-.02.18-.04.34-.04h1.42c.1,0,.19-.04.28-.13s.14-.19.16-.3l.91-3.55c.06-.22.24-.34.53-.34h3.53c.13,0,.22.04.28.13s.07.27.04.54l-.5,3.31c-.02.08,0,.15.07.22.06.06.14.1.22.1h2.11c.16,0,.3.03.41.08.11.06.15.16.12.32l-.34,2.47c-.02.16-.06.26-.14.31s-.22.07-.43.07h-2.23c-.26,0-.41.15-.46.46l-.65,4.61s-.02.1-.02.14v.14c0,.3.11.52.34.65.22.13.59.19,1.1.19h1.03c.13,0,.24.07.34.22.1.14.13.28.1.41l-.29,1.92c-.05.4-.25.61-.6.62-.34.03-.69.06-1.07.07-.38.02-.75.03-1.12.04-.37,0-.72.01-1.05.01-1.1,0-2-.26-2.7-.78Z"/>
    <path class="cls-1" d="m264.05,37.3c-.22,0-.39-.07-.49-.22-.1-.14-.15-.32-.13-.53l2.35-16.66c.03-.18.09-.29.18-.34s.21-.07.35-.07h3.84c.27,0,.38.18.34.53l-.79,5.64c-.05.26.02.32.19.19.53-.4,1.02-.71,1.48-.92s.89-.37,1.3-.46c.41-.09.8-.13,1.19-.13,1.09,0,1.93.29,2.53.88.6.58.9,1.39.9,2.41,0,.13,0,.26-.01.4,0,.14-.03.28-.06.42l-1.18,8.28c-.03.24-.09.4-.18.47-.09.07-.26.11-.52.11h-3.53c-.45,0-.63-.25-.55-.74l1.1-7.82s.02-.09.02-.13v-.11c0-.27-.08-.47-.24-.59-.16-.12-.39-.18-.7-.18-.27,0-.54.05-.79.16-.26.1-.49.26-.71.46-.22.2-.42.44-.61.71l-1.13,7.7c-.03.26-.1.41-.19.47-.1.06-.29.08-.58.08h-3.38Z"/>
    <path class="cls-1" d="m284.33,19.9c.03-.16.08-.27.14-.32.06-.06.2-.08.41-.08h14.59c.21,0,.33.03.37.1.04.06.04.17.01.31l-.43,3.14c-.02.13-.06.21-.13.25s-.19.06-.35.06h-4.25c-.16,0-.26.03-.31.08-.05.06-.09.16-.12.3l-1.85,13.1c-.02.18-.06.3-.14.36-.08.06-.18.1-.31.1h-4.51c-.21,0-.34-.05-.41-.14-.06-.1-.08-.26-.05-.48l1.85-13.03c.02-.19-.06-.29-.24-.29h-4.3c-.32,0-.46-.13-.41-.38l.43-3.07Z"/>
    <path class="cls-1" d="m299.61,37.3c-.22,0-.39-.07-.49-.22-.1-.14-.15-.32-.13-.53l2.35-16.66c.03-.18.09-.29.18-.34s.2-.07.35-.07h3.84c.27,0,.38.18.34.53l-.79,5.64c-.05.26.02.32.19.19.53-.4,1.02-.71,1.48-.92.46-.22.89-.37,1.29-.46s.8-.13,1.19-.13c1.09,0,1.93.29,2.53.88s.9,1.39.9,2.41c0,.13,0,.26-.01.4,0,.14-.03.28-.06.42l-1.18,8.28c-.03.24-.09.4-.18.47-.09.07-.26.11-.52.11h-3.53c-.45,0-.63-.25-.55-.74l1.1-7.82s.03-.09.03-.13v-.11c0-.27-.08-.47-.24-.59-.16-.12-.39-.18-.7-.18-.27,0-.54.05-.79.16-.26.1-.49.26-.71.46-.22.2-.42.44-.61.71l-1.13,7.7c-.03.26-.1.41-.19.47-.1.06-.29.08-.58.08h-3.38Z"/>
    <path class="cls-1" d="m316.44,36.82c-.91-.48-1.63-1.14-2.15-1.99-.52-.85-.78-1.83-.78-2.95,0-.99.19-1.94.58-2.83.38-.9.92-1.7,1.6-2.41s1.47-1.27,2.38-1.68c.9-.41,1.88-.61,2.94-.61,1.15,0,2.16.23,3.04.7.87.46,1.55,1.13,2.04,1.99.49.86.73,1.9.73,3.12,0,.21,0,.42-.02.65-.02.22-.04.45-.07.67-.02.14-.06.24-.14.28s-.22.06-.43.06h-7.42c-.19,0-.31.12-.36.36-.05.24-.07.46-.07.65,0,.54.19.94.58,1.19.38.25.87.37,1.46.37.46,0,.91-.1,1.34-.29.43-.19.9-.53,1.39-1.01.1-.1.2-.14.3-.13.1,0,.23.04.37.11l2.04.89c.42.18.48.43.19.77-.7.77-1.38,1.36-2.02,1.76s-1.31.69-2,.84c-.7.15-1.48.23-2.34.23-1.2,0-2.26-.24-3.17-.72Zm5.4-7.37c.16,0,.3-.07.42-.2.12-.14.18-.35.18-.64,0-.32-.1-.64-.3-.97-.2-.33-.55-.49-1.07-.49-.32,0-.64.09-.97.26s-.61.44-.84.78c-.23.34-.38.76-.44,1.26h3.02Z"/>
    <path class="cls-1" d="m349.56,34.74c-.77,1.04-1.74,1.77-2.93,2.18s-2.53.62-4.03.62c-2.5,0-4.27-.51-5.33-1.52-1.06-1.02-1.58-2.46-1.58-4.33,0-.32.02-.65.05-1,.03-.34.07-.69.12-1.04l1.37-9.74c.03-.18.08-.29.13-.34.05-.05.15-.07.28-.07h4.56c.14,0,.26.07.35.2.09.14.12.28.08.44l-1.44,10.37c-.02.19-.04.37-.06.54s-.04.33-.04.49c0,.82.19,1.38.56,1.7.38.32.88.48,1.53.48.53,0,1.03-.11,1.51-.34.48-.22.89-.6,1.25-1.13.35-.53.59-1.23.72-2.11l1.44-10.25c.03-.18.07-.29.12-.34s.14-.07.29-.07h3.6c.14,0,.26.07.35.2.09.14.12.28.08.44l-1.44,10.27c-.26,1.84-.77,3.28-1.54,4.32Z"/>
    <path class="cls-1" d="m353.85,36.69c-.96-.57-1.62-1.22-1.99-1.96-.14-.3-.07-.53.21-.67l1.97-.94c.21-.1.38-.14.53-.12.14.02.28.13.41.34.21.3.5.6.87.88.37.28.98.42,1.85.42.14,0,.34,0,.58-.02.24-.02.47-.05.71-.11s.43-.15.6-.29.25-.32.25-.56c0-.16-.08-.29-.23-.4-.15-.1-.44-.2-.85-.3l-2.38-.55c-1.07-.25-1.9-.64-2.5-1.15s-.89-1.23-.89-2.16c0-1.06.29-1.94.87-2.64s1.34-1.23,2.28-1.58c.94-.35,1.97-.53,3.07-.53,1.36,0,2.45.26,3.28.78.82.52,1.44,1.1,1.84,1.74.06.1.1.2.1.32s-.08.22-.24.3l-2.02.89c-.16.06-.29.08-.38.04s-.25-.17-.46-.4c-.19-.22-.47-.43-.83-.61-.36-.18-.81-.28-1.36-.28-.3,0-.6.03-.88.08-.28.06-.51.14-.69.26s-.26.28-.26.49c0,.18.05.31.14.4.1.09.3.17.62.25l2.47.53c1.28.27,2.19.74,2.74,1.4.54.66.82,1.42.82,2.27s-.18,1.52-.54,2.12c-.36.6-.84,1.09-1.43,1.48-.59.38-1.26.67-2,.85s-1.5.28-2.27.28c-1.71,0-3.05-.28-4.01-.85Z"/>
    <path class="cls-1" d="m367.99,36.82c-.91-.48-1.63-1.14-2.15-1.99-.52-.85-.78-1.83-.78-2.95,0-.99.19-1.94.58-2.83.38-.9.92-1.7,1.6-2.41s1.47-1.27,2.38-1.68c.9-.41,1.88-.61,2.94-.61,1.15,0,2.16.23,3.04.7.87.46,1.55,1.13,2.04,1.99.49.86.73,1.9.73,3.12,0,.21,0,.42-.02.65-.02.22-.04.45-.07.67-.02.14-.06.24-.14.28s-.22.06-.43.06h-7.42c-.19,0-.31.12-.36.36-.05.24-.07.46-.07.65,0,.54.19.94.58,1.19.38.25.87.37,1.46.37.46,0,.91-.1,1.34-.29.43-.19.9-.53,1.39-1.01.1-.1.2-.14.3-.13.1,0,.23.04.37.11l2.04.89c.42.18.48.43.19.77-.7.77-1.38,1.36-2.02,1.76s-1.31.69-2,.84c-.7.15-1.48.23-2.34.23-1.2,0-2.26-.24-3.17-.72Zm5.4-7.37c.16,0,.3-.07.42-.2.12-.14.18-.35.18-.64,0-.32-.1-.64-.3-.97-.2-.33-.55-.49-1.07-.49-.32,0-.64.09-.97.26s-.61.44-.84.78c-.23.34-.38.76-.44,1.26h3.02Z"/>
    <path class="cls-1" d="m378.89,37.09c-.1-.14-.14-.32-.12-.53l1.63-11.57c.03-.18.07-.29.12-.34.05-.05.14-.07.29-.07h3.82c.13,0,.23.05.31.14.08.1.1.26.07.48l-.14.86c-.02.19,0,.3.07.31.06.02.15-.03.26-.14.32-.35.7-.67,1.13-.96.43-.29.87-.52,1.32-.68s.84-.25,1.18-.25.58.02.77.07c.19.05.27.16.24.34l-.48,3.5c-.03.24-.08.39-.13.44-.06.06-.14.08-.25.06-.42-.06-.81-.11-1.19-.13-.38-.02-.65-.04-.83-.04-.29,0-.58.05-.87.16-.29.1-.55.24-.79.42s-.44.37-.59.58-.24.42-.28.62l-.89,6.38c-.03.26-.1.41-.21.47-.1.06-.29.08-.56.08h-3.38c-.24,0-.41-.07-.5-.22Z"/>
    <path class="cls-1" d="m401.71,19.5c.27,0,.38.22.34.65l-2.33,16.61c-.03.26-.1.41-.21.47-.1.06-.29.08-.56.08h-4.18c-.26,0-.4-.07-.44-.22-.04-.14-.05-.32-.04-.53l2.35-16.66c.03-.18.08-.29.13-.34.05-.05.15-.07.28-.07h4.66Z"/>
    <path class="cls-1" d="m401.79,37.09c-.04-.14-.05-.32-.04-.53l1.63-11.57c.03-.18.07-.29.12-.34.05-.05.14-.07.29-.07h4.1c.1,0,.17.02.21.06.05.04.06.14.03.3l-.17,1.08c-.02.21.08.22.29.02.56-.5,1.18-.9,1.86-1.22.68-.32,1.37-.48,2.05-.48,1.04,0,1.87.31,2.5.92.62.62.94,1.42.94,2.41,0,.11,0,.22-.01.34,0,.11-.02.23-.04.36l-1.18,8.35c-.03.24-.1.4-.21.47-.1.07-.28.11-.54.11h-3.67c-.21,0-.33-.07-.36-.2-.03-.14-.03-.32,0-.54l1.08-7.68c.02-.08.03-.15.04-.22,0-.06.01-.11.01-.14,0-.27-.08-.47-.25-.6s-.4-.19-.71-.19c-.27,0-.54.05-.79.16-.26.1-.49.26-.71.46-.21.2-.42.44-.61.71l-1.13,7.7c-.03.26-.1.41-.21.47s-.31.08-.6.08h-3.55c-.21,0-.33-.07-.37-.22Z"/>
    <path class="cls-1" d="m420.91,37.16c-.05-.1-.05-.32,0-.67l2.33-16.58c.03-.19.07-.31.12-.35.05-.04.16-.06.34-.06h6.72c.21,0,.36.05.46.14.1.1.16.23.19.41l1.44,7.58c.02.1.05.14.11.13.06,0,.1-.05.13-.13l3.38-7.56c.14-.38.36-.58.65-.58h7.11c.26,0,.36.13.31.38l-2.38,16.87c-.03.26-.1.41-.19.47-.1.06-.28.08-.55.08h-4.06c-.24,0-.42-.05-.53-.14-.11-.1-.14-.3-.1-.6l1.49-10.54c.03-.13.02-.19-.04-.19s-.12.08-.2.24l-5.02,10.92c-.06.13-.14.21-.23.25s-.2.06-.32.06h-2.52c-.14,0-.26-.04-.35-.11-.09-.07-.16-.22-.21-.44l-1.94-10.61c-.03-.18-.09-.26-.17-.26s-.14.07-.17.22l-1.54,10.82c-.02.16-.06.26-.13.31s-.19.07-.35.07h-3.43c-.19,0-.31-.05-.36-.14Z"/>
    <path class="cls-1" d="m448.63,36.75c-.03.26-.1.41-.2.47-.1.06-.29.08-.56.08h-3.38c-.24,0-.41-.07-.51-.22-.1-.14-.13-.32-.12-.53l1.63-11.57c.03-.18.07-.29.13-.34.06-.05.16-.07.3-.07h4.05c.13,0,.21.07.25.2.04.14.05.28.04.42l-1.63,11.54Zm1.95-13.78c-.03.24-.11.39-.22.46-.11.06-.3.1-.58.1h-3.62c-.18,0-.29-.08-.34-.23-.05-.15-.06-.33-.03-.54l.41-2.71c.05-.37.21-.55.48-.55h4.03c.13,0,.21.07.24.2.03.14.03.28,0,.44l-.38,2.83Z"/>
    <path class="cls-1" d="m450.44,37.09c-.04-.14-.05-.32-.04-.53l1.63-11.57c.03-.18.07-.29.12-.34.05-.05.14-.07.29-.07h4.1c.1,0,.17.02.22.06.05.04.05.14.02.3l-.17,1.08c-.02.21.08.22.29.02.56-.5,1.18-.9,1.86-1.22.68-.32,1.36-.48,2.05-.48,1.04,0,1.87.31,2.49.92.62.62.94,1.42.94,2.41,0,.11,0,.22-.01.34,0,.11-.02.23-.04.36l-1.18,8.35c-.03.24-.1.4-.2.47-.11.07-.29.11-.54.11h-3.67c-.21,0-.33-.07-.36-.2-.03-.14-.03-.32,0-.54l1.08-7.68c.02-.08.03-.15.04-.22,0-.06.01-.11.01-.14,0-.27-.08-.47-.25-.6s-.4-.19-.71-.19c-.27,0-.54.05-.79.16-.26.1-.49.26-.71.46-.22.2-.42.44-.61.71l-1.13,7.7c-.03.26-.11.41-.22.47-.11.06-.31.08-.6.08h-3.55c-.21,0-.33-.07-.37-.22Z"/>
    <path class="cls-1" d="m473.37,37.3c-.16,0-.3-.03-.43-.1-.13-.06-.18-.2-.14-.41l.07-.46c.03-.13.01-.2-.06-.23-.07-.02-.17.02-.3.13-.34.27-.68.51-1.03.71-.35.2-.72.35-1.11.44-.38.1-.81.14-1.27.14-1.26,0-2.27-.43-3.02-1.3-.75-.86-1.13-2.13-1.13-3.79,0-1.09.14-2.12.43-3.08.29-.97.7-1.83,1.22-2.59.53-.76,1.15-1.36,1.87-1.79.72-.43,1.51-.65,2.38-.65.59,0,1.11.11,1.55.34.44.22.85.59,1.23,1.1.11.14.24.2.37.18.13-.02.24-.26.3-.71l.77-5.33c.03-.18.1-.29.19-.35.1-.06.22-.08.36-.08h3.89c.26,0,.35.23.29.7l-2.35,16.58c-.02.21-.08.35-.18.42-.1.07-.28.11-.54.11h-3.36Zm.58-9.17c-.21-.3-.42-.52-.63-.64-.22-.12-.48-.18-.8-.18-.58,0-1.04.19-1.4.58s-.64.87-.84,1.45c-.2.58-.34,1.18-.42,1.79-.08.61-.12,1.14-.12,1.58,0,.48.05.86.15,1.15.11.29.26.49.47.61.21.12.46.18.74.18.35,0,.68-.08.98-.24.3-.16.56-.37.77-.64.21-.26.33-.55.36-.85l.74-4.8Z"/>
  </g>
</svg>