<?xml version="1.0" encoding="UTF-8"?>
<svg id="Layer_2" data-name="Layer 2" xmlns="http://www.w3.org/2000/svg" xmlns:xlink="http://www.w3.org/1999/xlink" viewBox="0 0 606 147.59">
  <defs>
    <style>
      .cls-1 {
        clip-path: url(#clippath);
      }

      .cls-2 {
        fill: none;
      }

      .cls-2, .cls-3, .cls-4, .cls-5 {
        stroke-width: 0px;
      }

      .cls-6 {
        isolation: isolate;
      }

      .cls-3 {
        fill: #395a2a;
      }

      .cls-4 {
        fill: #20221d;
      }

      .cls-5 {
        fill: #f0b416;
      }
    </style>
    <clipPath id="clippath">
      <rect class="cls-2" y="35.5" width="606" height="52.14"/>
    </clipPath>
  </defs>
  <g id="Layer_1-2" data-name="Layer 1">
    <g id="Group_7" data-name="Group 7">
      <g class="cls-1">
        <g id="Group_6" data-name="Group 6">
          <path id="Path_4" data-name="Path 4" class="cls-5" d="m605.99,51.32c.05,1.09-.09,15.4-.33,17.1-9.8,1.08-11.92,1.29-29.01,2.78-24.51,1.82-44.74,3.15-69.95,4.03-11.56.4-17.65.33-27.86-1.1-9.15-1.75-10.59-2.95-11.88-5.01-1.42-2.27,2.05-4.31,7.03-6.35,8.68-3.57-6.71-8.57-23.94-8.48-8.7.23-17.37,1.12-25.93,2.68-21.95,3.65-44.64,6.95-69.16,9.48-13.82,1.43-28,2.7-43.59,2.33-2.89.02-5.78-.1-8.66-.37-6.57-.94-11.75-.37-17.5.45-12.67,1.83-25.46,2.8-38.26,2.92-18.38.16-31.98-1.57-39.8-5.65-.6-.31-1.42-.6-2.11-.89-19.39,3.03-38.2,5.94-56.8,8.93-1.28.12-2.47.68-3.37,1.59-2.42,3.02-4.12,6.19-13.46,8.44-7.05,1.55-14.2,2.62-21.4,3.21-7.91.73-13.46-.34-16.02-2.3-4.29-3.27,2.19-5.89,9.25-8.48,2.17-.77,4.39-1.38,6.65-1.81,10.9-2.18,9.23-5.02,7.12-7.93-.17-.24-.28-.53-.3-.83-7.66.96-15.11,2.34-23.46,2.84-7.15.43-11.21-.48-14.56-1.71-2.53-.92-8.01-.9-10.41.06-1.71.68-3.37,1.34-4.99,2.01-4.63,1.9-11.83,3.11-20.33,3.59-14.55.82-29.22.18-42.1,1.92-1.2.16-.5-.14-.86-.82,11.95-1.14,15.09-1.71,25.52-2.28,19.2-1.04,28.06-4.29,33.81-8.25,3.77-2.59,6.04-5.31,8.91-7.98,1.1-1.02,2.51-2.11,8-1.69,4.25.33,10.32.21,9.68,2.2-.71,2.19.5,4.34,4.05,6.36,1.9,1.08,7.8,1.2,10.67.26,4.68-1.53,8-3.75,7.06-5.2-.41-.49-.64-1.11-.62-1.76.35-1.92,4.05-2.47,11.57-1.94,8.09.58,13.83,1.56,16.01,3.67,2.91,2.83,6.32,5.62,9.8,8.55,1.19,1,5.82,1.45,9.32.89,3.71-.59,7.54-1.22,11.21-1.89,10.53-1.94,21.24-3.86,30.89-6.03,3.4-.77,4.79-2.23,5.59-3.44,4.24-6.43,15.65-12.12,30.73-17.43,7.59-2.67,17.5-3.17,29.56-1.65,5.16.65,7.95,1.59,7.85,3.11-.28,4.5-8.86,8.38-17.24,12.17-6.19,2.79-12.61,5.05-19.18,6.73-6.42,1.67-5.14,2.87-1.96,4.4,5.39,2.59,9.63,3.14,21.02,2.42,4.49-.28,8.77-.76,13.2-1.11,8.96-.71,12.94-1.95,12.55-4.43-.48-3.02,6.59-5.5,15.98-7.46,2.76-.43,5.56-.58,8.35-.45,20.59.9,29.77,2.48,20.88,7.3-.05.02-.08.04-.12.07-2.35,1.26,2.27,2.6,7.54,2.19,15.01-1.16,28.64-2.79,41.93-4.58,18.02-2.43,35.14-5.25,53.38-7.57,26.45-3.36,65.42-.6,80.64,5.66,8.53,3.5,4.36,6.93-4.05,10.18-.04.01.03-.01,0,0-2.77,1.1,3.47,1.61,8.38.65"/>
        </g>
      </g>
    </g>
    <g class="cls-6">
      <path class="cls-3" d="m46.06,20.87v50.18h-21.66V20.87H2.25V3.63h65.86v17.25h-22.05Z"/>
      <path class="cls-3" d="m100.69,85.99c-3.89,3.76-9.33,5.63-16.32,5.63-4.25,0-8-.59-11.27-1.76v-11.66h7.84c4.9,0,7.81-2.39,8.72-7.15l-20.58-51.74h20.97l9.9,34.4h.69l9.11-34.4h19.21l-18.42,50.18c-2.68,7.25-5.96,12.76-9.85,16.51Z"/>
      <path class="cls-3" d="m135.53,71.05V0h19.5v71.05h-19.5Z"/>
      <path class="cls-3" d="m215.94,24.79c5,4.44,7.5,11.24,7.5,20.38v3.33h-38.81c0,3.72.83,6.53,2.5,8.43,1.67,1.9,4.3,2.84,7.89,2.84,3.27,0,5.67-.69,7.2-2.06,1.53-1.37,2.3-3.2,2.3-5.49h18.91c0,6.27-2.39,11.17-7.15,14.7-4.77,3.53-11.73,5.29-20.87,5.29-9.6,0-17.05-2.24-22.34-6.71-5.29-4.47-7.94-11.25-7.94-20.33s2.58-15.61,7.74-20.19c5.16-4.57,12.28-6.86,21.36-6.86s16.71,2.22,21.71,6.66Zm-31.21,14.5h19.01c0-2.68-.77-4.8-2.3-6.37-1.54-1.57-3.67-2.35-6.42-2.35-6.14,0-9.57,2.91-10.29,8.72Z"/>
      <path class="cls-3" d="m268.32,18.57c1.18.36,1.76.57,1.76.64v16.37h-6.27c-4.05,0-6.98,1.05-8.77,3.14-1.8,2.09-2.7,5.19-2.7,9.31v23.03h-19.5V19.31h15.97l1.27,7.84c1.18-3,3.04-5.27,5.59-6.81,2.55-1.53,5.42-2.3,8.62-2.3,1.5,0,2.84.18,4.02.54Z"/>
      <path class="cls-3" d="m361.03,71.05l-8.72-41.06h-.39l-8.72,41.06h-23.81l-15.78-67.42h22.54l7.74,38.22h.39l7.64-38.22h21.36l8.13,38.22h.39l7.25-38.22h21.56l-15.78,67.42h-23.81Z"/>
      <path class="cls-3" d="m450.21,22.1c4.96,2.65,7.45,6.94,7.45,12.89v20.19c0,1.11.26,2.03.78,2.74.52.72,1.31,1.08,2.35,1.08h3.53v11.27c-.2.13-.7.34-1.52.64-.82.29-1.98.59-3.48.88-1.5.29-3.23.44-5.19.44-3.79,0-6.91-.57-9.36-1.71s-4.13-2.73-5.05-4.75c-2.48,1.96-5.26,3.53-8.33,4.7-3.07,1.18-6.66,1.76-10.78,1.76-12.15,0-18.23-4.83-18.23-14.5,0-5.03,1.35-8.87,4.07-11.51,2.71-2.65,6.62-4.46,11.71-5.44,5.1-.98,11.76-1.47,19.99-1.47v-2.55c0-2.02-.7-3.56-2.11-4.61-1.41-1.04-3.22-1.57-5.44-1.57-2.03,0-3.77.36-5.24,1.08-1.47.72-2.21,1.86-2.21,3.43v.39h-19.21c-.07-.33-.1-.78-.1-1.37,0-4.9,2.33-8.79,7.01-11.66,4.67-2.87,11.35-4.31,20.04-4.31,7.9,0,14.34,1.32,19.31,3.97Zm-24.35,28.22c-2.65,1.21-3.97,2.83-3.97,4.85,0,3.27,2.22,4.9,6.66,4.9,2.55,0,4.79-.69,6.71-2.06,1.93-1.37,2.89-3.07,2.89-5.1v-4.41c-5.55,0-9.65.6-12.3,1.81Z"/>
      <path class="cls-3" d="m471.37,13.23V0h19.5v13.23h-19.5Zm0,57.82V19.31h19.5v51.74h-19.5Z"/>
      <path class="cls-3" d="m537.82,19.31v13.23h-10.98v19.7c0,2.35.39,4.07,1.18,5.15s2.22,1.62,4.31,1.62h5.49v11.47c-1.57.52-3.59.95-6.08,1.27-2.48.33-4.64.49-6.47.49-5.75,0-10.18-1.05-13.28-3.14-3.1-2.09-4.65-5.65-4.65-10.68v-25.87h-7.25v-13.23h8.04l4.21-15.68h14.5v15.68h10.98Z"/>
      <path class="cls-3" d="m595.29,24.79c5,4.44,7.5,11.24,7.5,20.38v3.33h-38.81c0,3.72.83,6.53,2.5,8.43,1.67,1.9,4.29,2.84,7.89,2.84,3.27,0,5.67-.69,7.2-2.06,1.53-1.37,2.3-3.2,2.3-5.49h18.91c0,6.27-2.39,11.17-7.15,14.7-4.77,3.53-11.73,5.29-20.87,5.29-9.6,0-17.05-2.24-22.34-6.71-5.29-4.47-7.94-11.25-7.94-20.33s2.58-15.61,7.74-20.19c5.16-4.57,12.28-6.86,21.36-6.86s16.71,2.22,21.71,6.66Zm-31.21,14.5h19.01c0-2.68-.77-4.8-2.3-6.37-1.54-1.57-3.67-2.35-6.42-2.35-6.14,0-9.57,2.91-10.29,8.72Z"/>
    </g>
    <g>
      <path class="cls-4" d="m165.19,94.64c.06.37-.13,1.07-.56,2.09l-17.65,39.94c-.28.51-.55.84-.83.97-.28.14-.71.21-1.3.21h-8.15c-.59,0-1.04-.08-1.36-.24-.32-.16-.51-.49-.59-1l-3.37-21.18c-.04-.35-.13-.52-.27-.5-.14.02-.29.19-.44.5l-9.27,21.24c-.24.51-.49.84-.77.97-.28.14-.73.21-1.36.21h-8.56c-1.1,0-1.73-.47-1.89-1.42l-6.49-40.3c-.12-.67-.06-1.18.18-1.53.24-.35.73-.53,1.48-.53h9.86c.63,0,1.07.15,1.33.44.26.29.4.66.44,1.09l3.19,21.65c.08.39.18.6.3.62.12.02.26-.17.41-.56l9.45-22.3c.16-.39.35-.65.59-.77s.67-.18,1.3-.18h8.5c.63,0,1.02.14,1.18.41.16.28.26.65.3,1.12l3.37,22.12c.04.24.14.35.3.35s.29-.16.41-.47l9.27-22.6c.16-.39.34-.65.56-.77.22-.12.64-.18,1.27-.18h7.91c.79,0,1.21.19,1.27.56Z"/>
      <path class="cls-4" d="m166.05,136.68c-2.24-1.18-4.01-2.81-5.28-4.9-1.28-2.08-1.92-4.5-1.92-7.26,0-2.44.47-4.76,1.42-6.96.94-2.2,2.25-4.18,3.93-5.93,1.67-1.75,3.62-3.13,5.85-4.13,2.22-1,4.63-1.5,7.23-1.5,2.83,0,5.32.57,7.47,1.71,2.15,1.14,3.82,2.77,5.02,4.9,1.2,2.12,1.8,4.68,1.8,7.67,0,.51-.02,1.04-.06,1.59-.04.55-.1,1.1-.18,1.65-.04.35-.16.58-.35.68-.2.1-.55.15-1.06.15h-18.24c-.47,0-.77.3-.89.89-.12.59-.18,1.12-.18,1.59,0,1.34.47,2.31,1.42,2.92.94.61,2.14.91,3.6.91,1.14,0,2.24-.24,3.31-.71,1.06-.47,2.2-1.3,3.42-2.48.24-.24.48-.34.74-.32.26.02.56.11.92.27l5.02,2.18c1.02.43,1.18,1.06.47,1.89-1.73,1.89-3.39,3.33-4.96,4.34-1.57,1-3.22,1.69-4.93,2.06-1.71.37-3.63.56-5.76.56-2.95,0-5.55-.59-7.79-1.77Zm13.28-18.11c.39,0,.74-.17,1.03-.5.29-.33.44-.86.44-1.56,0-.79-.25-1.58-.74-2.39-.49-.81-1.37-1.21-2.63-1.21-.79,0-1.58.22-2.39.65-.81.43-1.5,1.07-2.07,1.92-.57.85-.94,1.88-1.09,3.1h7.44Z"/>
      <path class="cls-4" d="m194.69,137.86c-.63,0-1.06-.18-1.3-.53s-.33-.79-.3-1.3l5.79-40.95c.08-.43.19-.71.32-.83.14-.12.36-.18.68-.18h10.1c.35,0,.56.17.62.5.06.33.05.7-.03,1.09l-1.77,12.69c-.04.32,0,.5.15.56.14.06.38-.05.74-.32.94-.71,1.84-1.25,2.69-1.62.85-.37,1.68-.63,2.51-.77.83-.14,1.63-.21,2.42-.21,2.28,0,4.2.51,5.76,1.53,1.55,1.02,2.75,2.47,3.57,4.34s1.24,4.12,1.24,6.76c0,2.28-.29,4.59-.86,6.93-.57,2.34-1.48,4.48-2.72,6.43-1.24,1.95-2.84,3.51-4.81,4.69-1.97,1.18-4.33,1.77-7.09,1.77-1.14,0-2.23-.2-3.28-.59-1.04-.39-2.01-.95-2.89-1.68-.89-.73-1.66-1.62-2.33-2.68-.12-.2-.3-.29-.53-.29s-.45.28-.65.83l-.94,2.6c-.16.51-.35.85-.59,1-.24.16-.55.24-.94.24h-5.55Zm11.45-10.56c-.12.98-.07,1.79.15,2.42.22.63.58,1.09,1.09,1.39.51.29,1.14.44,1.89.44,1.42,0,2.58-.5,3.48-1.5.9-1,1.59-2.25,2.07-3.75.47-1.49.81-3.02,1-4.57.2-1.55.29-2.88.29-3.98,0-1.73-.27-2.92-.8-3.57-.53-.65-1.31-.97-2.33-.97s-1.96.25-2.8.74c-.85.49-1.62,1.11-2.33,1.86l-1.71,11.5Z"/>
      <path class="cls-4" d="m242.3,137.27c-.29-.39-.4-.9-.32-1.53l5.67-40.53c.08-.47.21-.78.38-.91.18-.14.54-.21,1.09-.21h14.76c4.76,0,8.75.8,11.96,2.39,3.21,1.59,5.64,3.79,7.29,6.58,1.65,2.79,2.48,5.96,2.48,9.5,0,5.04-1.1,9.46-3.31,13.27-2.21,3.82-5.28,6.78-9.24,8.88-3.96,2.1-8.59,3.16-13.9,3.16h-15.53c-.59,0-1.03-.2-1.33-.59Zm18.45-8.67c2.52,0,4.58-.77,6.2-2.3,1.61-1.53,2.8-3.57,3.57-6.11s1.15-5.34,1.15-8.41c0-1.85-.3-3.4-.89-4.66-.59-1.26-1.42-2.2-2.48-2.83-1.06-.63-2.34-.94-3.84-.94h-3.48c-.71,0-1.12.39-1.24,1.18l-3.13,22.95c-.04.35,0,.63.12.83.12.2.33.29.65.29h3.37Z"/>
      <path class="cls-4" d="m294.58,136.68c-2.24-1.18-4.01-2.81-5.28-4.9-1.28-2.08-1.92-4.5-1.92-7.26,0-2.44.47-4.76,1.42-6.96.94-2.2,2.25-4.18,3.93-5.93,1.67-1.75,3.62-3.13,5.85-4.13,2.22-1,4.63-1.5,7.23-1.5,2.83,0,5.32.57,7.47,1.71,2.14,1.14,3.82,2.77,5.02,4.9,1.2,2.12,1.8,4.68,1.8,7.67,0,.51-.02,1.04-.06,1.59-.04.55-.1,1.1-.18,1.65-.04.35-.16.58-.35.68-.2.1-.55.15-1.06.15h-18.24c-.47,0-.77.3-.89.89-.12.59-.18,1.12-.18,1.59,0,1.34.47,2.31,1.42,2.92.94.61,2.14.91,3.6.91,1.14,0,2.24-.24,3.31-.71,1.06-.47,2.2-1.3,3.42-2.48.24-.24.48-.34.74-.32.26.02.56.11.92.27l5.02,2.18c1.02.43,1.18,1.06.47,1.89-1.73,1.89-3.39,3.33-4.96,4.34s-3.22,1.69-4.93,2.06c-1.71.37-3.63.56-5.76.56-2.95,0-5.55-.59-7.79-1.77Zm13.29-18.11c.39,0,.74-.17,1.03-.5.29-.33.44-.86.44-1.56,0-.79-.25-1.58-.74-2.39-.49-.81-1.37-1.21-2.63-1.21-.79,0-1.58.22-2.39.65-.81.43-1.5,1.07-2.07,1.92-.57.85-.94,1.88-1.09,3.1h7.44Z"/>
      <path class="cls-4" d="m355.25,107.26c.22.45.23.9.03,1.33l-15.47,28.08c-.28.51-.56.84-.86.97-.29.14-.74.21-1.33.21h-5.55c-.59,0-1.05-.17-1.39-.5-.33-.33-.54-.76-.62-1.27l-7.62-28.08c-.2-.94.14-1.42,1-1.42h9.98c.35,0,.68.17.97.5.29.33.46.66.5.97l3.31,13.63c.16.55.47.33.94-.65l6.91-13.57c.39-.59.91-.89,1.54-.89h6.61c.47,0,.82.23,1.03.68Z"/>
      <path class="cls-4" d="m360.18,136.68c-2.24-1.18-4-2.81-5.28-4.9-1.28-2.08-1.92-4.5-1.92-7.26,0-2.44.47-4.76,1.42-6.96.95-2.2,2.25-4.18,3.93-5.93,1.67-1.75,3.62-3.13,5.84-4.13s4.64-1.5,7.23-1.5c2.83,0,5.32.57,7.47,1.71,2.14,1.14,3.82,2.77,5.02,4.9,1.2,2.12,1.8,4.68,1.8,7.67,0,.51-.02,1.04-.06,1.59-.04.55-.1,1.1-.18,1.65-.04.35-.16.58-.35.68-.2.1-.55.15-1.06.15h-18.24c-.47,0-.77.3-.89.89s-.18,1.12-.18,1.59c0,1.34.47,2.31,1.42,2.92.94.61,2.14.91,3.6.91,1.14,0,2.24-.24,3.31-.71,1.06-.47,2.2-1.3,3.42-2.48.24-.24.48-.34.74-.32.26.02.56.11.92.27l5.02,2.18c1.02.43,1.18,1.06.47,1.89-1.73,1.89-3.39,3.33-4.96,4.34s-3.22,1.69-4.93,2.06c-1.71.37-3.63.56-5.76.56-2.95,0-5.55-.59-7.79-1.77Zm13.29-18.11c.39,0,.74-.17,1.03-.5.29-.33.44-.86.44-1.56,0-.79-.25-1.58-.74-2.39-.49-.81-1.37-1.21-2.63-1.21-.79,0-1.58.22-2.39.65-.81.43-1.5,1.07-2.07,1.92-.57.85-.93,1.88-1.09,3.1h7.44Z"/>
      <path class="cls-4" d="m399.03,136.5c-.08.63-.25,1.01-.5,1.15-.26.14-.72.21-1.39.21h-8.38c-.59,0-1.01-.18-1.27-.53-.26-.35-.36-.79-.33-1.3l6.08-40.95c.08-.43.18-.71.29-.83s.35-.18.71-.18h9.86c.59,0,.83.43.71,1.3l-5.79,41.12Z"/>
      <path class="cls-4" d="m411.55,136.68c-2.21-1.18-3.91-2.83-5.11-4.96-1.2-2.12-1.8-4.56-1.8-7.32s.49-5.26,1.48-7.52c.98-2.26,2.33-4.2,4.04-5.81,1.71-1.61,3.68-2.86,5.9-3.75,2.22-.88,4.56-1.33,7-1.33,3.03,0,5.65.61,7.85,1.83,2.2,1.22,3.9,2.9,5.08,5.04,1.18,2.14,1.77,4.61,1.77,7.4,0,3.46-.81,6.57-2.42,9.32-1.61,2.75-3.81,4.92-6.58,6.49-2.78,1.57-5.92,2.36-9.42,2.36-2.99,0-5.59-.59-7.79-1.77Zm11.31-7.2c1-.94,1.81-2.38,2.42-4.31.61-1.93.92-4.37.92-7.32,0-1.61-.26-2.77-.77-3.48-.51-.71-1.34-1.06-2.48-1.06s-2.27.47-3.28,1.42-1.81,2.39-2.42,4.34c-.61,1.95-.92,4.42-.92,7.4,0,1.57.25,2.71.77,3.39.51.69,1.32,1.03,2.42,1.03,1.22,0,2.33-.47,3.34-1.42Z"/>
      <path class="cls-4" d="m438.06,147.09c-.08-.33-.08-.72,0-1.15l5.31-38.17c.08-.51.2-.84.35-.97.16-.14.55-.21,1.18-.21h8.74c.55,0,.94.06,1.18.18.24.12.31.43.24.94l-.18,1.24c-.04.24.08.32.35.27.27-.06.55-.19.83-.38.91-.63,1.76-1.15,2.57-1.56.81-.41,1.65-.73,2.54-.94.89-.22,1.9-.32,3.04-.32,2.91,0,5.3,1.02,7.17,3.07,1.87,2.05,2.8,5.17,2.8,9.38,0,2.16-.24,4.42-.71,6.76-.47,2.34-1.25,4.51-2.33,6.52-1.08,2.01-2.53,3.63-4.34,4.87-1.81,1.24-4.04,1.86-6.67,1.86-1.46,0-2.81-.29-4.07-.88s-2.4-1.49-3.42-2.71c-.39-.47-.71-.53-.95-.18-.24.35-.39.83-.47,1.42l-1.48,10.68c-.04.39-.12.63-.24.71-.12.08-.35.12-.71.12h-10.16c-.31,0-.51-.17-.59-.5Zm21.02-17.29c.91-1,1.6-2.25,2.1-3.75.49-1.49.84-3.02,1.03-4.57.2-1.55.3-2.88.3-3.98,0-1.18-.14-2.08-.41-2.71-.28-.63-.66-1.06-1.15-1.3-.49-.24-1.11-.35-1.86-.35-.83,0-1.62.18-2.39.53s-1.4.81-1.89,1.36c-.49.55-.78,1.14-.86,1.77l-1.89,12.45c.43.71.92,1.23,1.45,1.56.53.33,1.21.5,2.04.5,1.46,0,2.64-.5,3.54-1.5Z"/>
      <path class="cls-4" d="m483.64,136.68c-2.24-1.18-4-2.81-5.28-4.9-1.28-2.08-1.92-4.5-1.92-7.26,0-2.44.47-4.76,1.42-6.96.95-2.2,2.25-4.18,3.93-5.93,1.67-1.75,3.62-3.13,5.84-4.13s4.64-1.5,7.23-1.5c2.83,0,5.32.57,7.47,1.71,2.14,1.14,3.82,2.77,5.02,4.9,1.2,2.12,1.8,4.68,1.8,7.67,0,.51-.02,1.04-.06,1.59-.04.55-.1,1.1-.18,1.65-.04.35-.16.58-.35.68-.2.1-.55.15-1.06.15h-18.24c-.47,0-.77.3-.89.89s-.18,1.12-.18,1.59c0,1.34.47,2.31,1.42,2.92.94.61,2.14.91,3.6.91,1.14,0,2.24-.24,3.31-.71,1.06-.47,2.2-1.3,3.42-2.48.24-.24.48-.34.74-.32.26.02.56.11.92.27l5.02,2.18c1.02.43,1.18,1.06.47,1.89-1.73,1.89-3.39,3.33-4.96,4.34s-3.22,1.69-4.93,2.06c-1.71.37-3.63.56-5.76.56-2.95,0-5.55-.59-7.79-1.77Zm13.29-18.11c.39,0,.74-.17,1.03-.5.29-.33.44-.86.44-1.56,0-.79-.25-1.58-.74-2.39-.49-.81-1.37-1.21-2.63-1.21-.79,0-1.58.22-2.39.65-.81.43-1.5,1.07-2.07,1.92-.57.85-.93,1.88-1.09,3.1h7.44Z"/>
      <path class="cls-4" d="m510.98,137.33c-.24-.35-.33-.79-.29-1.3l4.01-28.44c.08-.43.18-.71.29-.83.12-.12.35-.18.71-.18h9.39c.31,0,.57.12.77.35.2.24.26.63.18,1.18l-.35,2.12c-.04.47.02.73.18.77.16.04.37-.08.65-.35.79-.86,1.71-1.65,2.78-2.36,1.06-.71,2.14-1.27,3.25-1.68,1.1-.41,2.07-.62,2.89-.62s1.42.06,1.89.18c.47.12.67.39.59.83l-1.18,8.61c-.08.59-.19.95-.33,1.09-.14.14-.34.19-.62.15-1.02-.16-2-.27-2.92-.32s-1.6-.09-2.04-.09c-.71,0-1.42.13-2.13.38-.71.26-1.36.6-1.95,1.03-.59.43-1.07.91-1.45,1.42-.38.51-.6,1.02-.68,1.53l-2.18,15.69c-.08.63-.25,1.01-.5,1.15-.26.14-.72.21-1.39.21h-8.32c-.59,0-1-.18-1.24-.53Z"/>
    </g>
  </g>
</svg>